<svg width="22" height="22" viewBox="0 0 22 22" fill="none" xmlns="http://www.w3.org/2000/svg">
<g clip-path="url(#clip0_25_276)">
<path d="M19.0854 3.55591C18.9353 4.43551 18.8572 5.35124 18.8572 6.29052C18.8572 6.76901 18.8788 7.24162 18.9184 7.70477C19.7403 7.65841 20.5924 7.63525 21.4692 7.63288C20.9743 6.10039 20.1524 4.71364 19.0854 3.55591Z" fill="#69C2F1"/>
<path d="M18.4145 2.88722C16.4573 1.09816 13.8543 0.00488281 11.0002 0.00488281C10.3638 0.00488281 9.74112 0.0622451 9.13416 0.166357C11.9768 1.68356 14.255 4.48339 15.6728 8.01395C16.4636 7.90747 17.2831 7.82145 18.1332 7.7582C18.0927 7.27812 18.0715 6.78824 18.0715 6.29089C18.0715 5.11429 18.1898 3.97229 18.4145 2.88722Z" fill="#69C2F1"/>
<path d="M15.1676 8.87671C13.9835 9.05507 12.8698 9.28057 11.822 9.54336C12.5751 11.2126 13.0041 13.1132 13.0041 15.1297C13.0041 17.7484 12.4196 20.102 11.3173 21.9951C12.2483 21.968 13.1715 21.8262 14.0664 21.5665C14.6817 21.3882 15.2796 21.1552 15.8543 20.8724C15.9132 20.8433 15.971 20.8127 16.0295 20.7824L16.1203 20.3196C16.3069 19.1482 16.4998 17.9366 16.4998 16.7011C16.4997 13.8887 16.0251 11.2256 15.1676 8.87671Z" fill="#69C2F1"/>
<path d="M21.69 8.41809C20.7649 8.41611 19.8695 8.4385 19.0068 8.48645C19.3517 11.0227 20.2765 13.179 21.514 14.239C21.8295 13.216 22 12.1298 22 11.0046C22 10.1136 21.8908 9.24819 21.69 8.41809Z" fill="#69C2F1"/>
<path d="M2.79004 3.93348C2.72602 3.93348 2.66277 3.92996 2.5987 3.92798C1.34589 5.41729 0.482402 7.22869 0.151634 9.19375C0.150474 9.202 0.148884 9.20986 0.147294 9.21811C0.102135 9.48997 0.0691355 9.76496 0.0443859 10.0419C0.0404758 10.0871 0.0372962 10.1331 0.0341596 10.1783C0.013363 10.452 0 10.727 0 11.0048C0 12.1421 0.173634 13.2397 0.495378 14.2725C2.74368 12.375 6.04164 10.3428 10.6914 9.03266C9.00807 5.96646 6.09626 3.93348 2.79004 3.93348Z" fill="#69C2F1"/>
<path d="M7.90687 0.450684C7.89587 0.45382 7.88487 0.45657 7.87425 0.460094C7.6091 0.538682 7.34901 0.627067 7.09327 0.724476C7.05554 0.738999 7.01824 0.754338 6.98052 0.768862C6.72593 0.86902 6.47492 0.975881 6.23094 1.09374C6.22428 1.09688 6.21797 1.1004 6.21131 1.10397C5.97872 1.21672 5.75245 1.33969 5.53009 1.46812C5.48412 1.49485 5.43775 1.52037 5.39182 1.54748C5.17458 1.67673 4.96244 1.81346 4.75542 1.95645C4.71417 1.98511 4.6737 2.01459 4.63284 2.04368C4.18893 2.36035 3.76978 2.70723 3.37968 3.08359C3.3667 3.09618 3.35377 3.10834 3.3404 3.12093C3.32627 3.13468 3.31406 3.14959 3.29993 3.16334C6.74798 3.36331 9.75015 5.57939 11.4693 8.82433C12.5362 8.55131 13.6708 8.31636 14.8764 8.12898C13.3824 4.50295 10.9401 1.72 7.90687 0.450684Z" fill="#69C2F1"/>
<path d="M18.2169 8.53882C17.4383 8.59618 16.6852 8.67279 15.958 8.76706C16.8132 11.1634 17.2858 13.86 17.2858 16.7014C17.2858 17.9358 17.1063 19.119 16.924 20.2662C18.8611 19.0228 20.3835 17.1901 21.2371 15.022C19.7121 13.8839 18.5996 11.4522 18.2169 8.53882Z" fill="#69C2F1"/>
<path d="M11.0544 9.74609C6.29695 11.0625 2.98523 13.1513 0.780151 15.0641C2.32838 18.9486 6.02706 21.7508 10.3991 21.9877C11.5867 20.1562 12.2188 17.794 12.2188 15.1297C12.2188 13.1792 11.7957 11.3446 11.0544 9.74609ZM4.17476 17.5972C4.1021 17.6553 4.01526 17.6836 3.92924 17.6836C3.81412 17.6836 3.70022 17.6333 3.6224 17.5363C3.53402 17.4267 3.43738 17.3112 3.33718 17.1921C3.00366 16.795 2.62571 16.3452 2.39944 15.8958C2.30161 15.7021 2.37981 15.466 2.57347 15.3682C2.76712 15.2699 3.00323 15.3485 3.10107 15.5422C3.28609 15.9099 3.63297 16.3224 3.93865 16.6865C4.04276 16.8103 4.1433 16.9305 4.23525 17.0448C4.3712 17.2141 4.34371 17.4612 4.17476 17.5972ZM8.62182 20.1676C8.56605 20.331 8.41359 20.4339 8.2498 20.4339C8.20778 20.4339 8.16533 20.4269 8.1233 20.4127C7.32191 20.1397 6.52206 19.7401 5.67859 19.1917C5.4971 19.0727 5.44562 18.8295 5.56348 18.6476C5.68173 18.4658 5.92489 18.4143 6.1072 18.5325C6.89528 19.0452 7.63776 19.4164 8.37669 19.6686C8.58216 19.7386 8.69177 19.9622 8.62182 20.1676Z" fill="#69C2F1"/>
</g>
<defs>
<clipPath id="clip0_25_276">
<rect width="22" height="22" fill="white"/>
</clipPath>
</defs>
</svg>
