<svg width="25" height="34" viewBox="0 0 25 34" fill="none" xmlns="http://www.w3.org/2000/svg">
<g clip-path="url(#clip0_25_312)">
<path d="M11.6791 1.677C11.7138 1.6875 11.975 1.85612 12.0318 1.89005L13.0319 2.47648L16.7033 4.60532C17.3748 4.99061 18.0439 5.37995 18.7107 5.77327C18.0044 6.13109 17.0683 6.71366 16.3639 7.1222L11.6807 9.84156C11.6004 9.82859 10.6513 9.2495 10.5045 9.16383L6.57724 6.88553L5.51819 6.27075C5.24826 6.11167 4.91227 5.90451 4.63171 5.77433C5.24729 5.40424 5.90332 5.03599 6.52671 4.67394L11.6791 1.677Z" fill="#69C2F1"/>
<path d="M11.6704 21.9341C12.0721 22.3782 12.537 22.7926 12.9519 23.2268C13.0739 23.3545 13.2223 23.5028 13.3556 23.6171C12.8303 24.1413 12.2269 25.1085 11.9313 25.7998C11.2918 27.2562 11.0876 28.8665 11.3432 30.4362C11.423 30.9505 11.5296 31.4259 11.7227 31.9091C11.3492 31.8787 10.9933 31.8964 10.5968 31.8523C9.48156 31.7277 8.58097 31.4853 7.55248 31.0634C6.47483 30.6384 5.36178 29.8779 4.50928 29.1011C4.78327 28.8683 5.28509 28.3341 5.55289 28.0664L7.64627 25.9729L10.2564 23.3636C10.6911 22.929 11.2697 22.3827 11.6704 21.9341Z" fill="#69C2F1"/>
<path d="M9.37313 19.6665C9.41185 19.6732 10.8953 21.1702 11.0512 21.3275C10.683 21.6764 10.296 22.0785 9.93502 22.4392L7.86398 24.5096C6.55535 25.8177 5.16664 27.166 3.88587 28.4925C3.67459 28.208 3.42071 27.9545 3.18886 27.636C1.81425 25.8055 1.08041 23.5737 1.10063 21.2847C1.57107 21.4749 2.54251 21.6766 3.02717 21.7247C4.94866 21.9194 6.87763 21.4345 8.47834 20.3539C8.79687 20.1412 9.07786 19.9086 9.37313 19.6665Z" fill="#69C2F1"/>
<path d="M19.452 14.1548C19.6493 14.3126 20.0997 14.9303 20.2592 15.1487C21.2985 16.5843 21.9542 18.2611 22.1646 20.0206C22.2214 20.4809 22.2332 20.9108 22.2573 21.3723C21.9923 21.268 21.3921 21.104 21.1212 21.0468C20.5865 20.9382 20.0422 20.8854 19.4966 20.8893C17.7704 20.8867 16.3098 21.3547 14.8745 22.2889C14.625 22.434 14.1928 22.799 13.9534 22.9946C13.8587 22.8718 13.5114 22.5394 13.3871 22.416C13.024 22.0557 12.6593 21.6829 12.2927 21.3271L16.9822 16.6389L18.5371 15.0855C18.8277 14.7949 19.1813 14.4575 19.452 14.1548Z" fill="#69C2F1"/>
<path d="M17.1839 12.2915C17.2659 12.3332 17.4707 12.4763 17.557 12.5331C18.0183 12.8364 18.428 13.1757 18.8386 13.5426C17.5356 14.7991 16.2114 16.1644 14.9275 17.4474L12.8369 19.537C12.4549 19.9189 12.0391 20.3204 11.6692 20.7111C11.4889 20.5034 11.2043 20.2337 11.0041 20.0338C10.6708 19.7014 10.3319 19.3537 9.99377 19.0276C10.2372 18.7944 10.5001 18.4248 10.6905 18.148C11.698 16.6831 12.0949 15.115 12.1099 13.3485C12.4488 13.3715 13.0234 13.3521 13.391 13.3523L14.6521 13.3541C15.753 13.3551 16.5666 13.3792 17.1839 12.2915Z" fill="#69C2F1"/>
<path d="M3.88192 14.1494C4.09531 14.3856 4.38535 14.661 4.61508 14.8908L5.93915 16.2147C6.85016 17.1255 7.82496 18.1404 8.75132 19.0245C7.86408 19.8457 6.90158 20.2954 5.76155 20.6366C5.58515 20.6876 5.40643 20.7304 5.22596 20.7647C4.04304 20.9823 2.82472 20.906 1.6782 20.5425C1.5567 20.5037 1.24986 20.4122 1.15816 20.3498C1.156 20.3399 1.14952 20.3086 1.15019 20.3009C1.32527 18.2755 2.13965 16.301 3.41055 14.7169C3.56607 14.523 3.72969 14.3432 3.88192 14.1494Z" fill="#69C2F1"/>
<path d="M13.9541 24.2383C14.0113 24.2755 14.2604 24.5308 14.3239 24.5949L15.0825 25.3581L17.5704 27.8433C17.9555 28.2282 18.4413 28.7463 18.8344 29.1029C18.0092 29.8606 17.0712 30.4857 16.054 30.9554C14.881 31.4541 13.916 31.736 12.6357 31.8626C11.7894 29.5835 11.96 27.2036 13.2863 25.1378C13.4943 24.8139 13.729 24.5454 13.9541 24.2383Z" fill="#69C2F1"/>
<path d="M18.9358 21.7903C19.5617 21.701 20.7808 21.8421 21.3953 22.0191C21.667 22.0976 21.9442 22.2163 22.2112 22.2902C22.1465 22.7865 22.0809 23.3257 21.9602 23.8125C21.5858 25.3229 20.8847 26.7562 19.9007 27.9636C19.7544 28.1427 19.5924 28.3136 19.4575 28.5009C19.2637 28.2705 18.889 27.917 18.6652 27.6939L15.9894 25.0185C15.5534 24.5821 15.0276 24.0227 14.5863 23.6215C15.8577 22.5054 17.2636 21.9308 18.9358 21.7903Z" fill="#69C2F1"/>
<path d="M6.82285 8.05373C6.92764 8.10224 7.14259 8.23329 7.25108 8.29546C7.55627 8.46974 7.86019 8.6462 8.16285 8.82487L10.5426 10.2051C10.8725 10.397 11.2574 10.6521 11.6169 10.793C11.6824 10.8186 11.9041 10.7234 11.9708 10.6852C12.9794 10.1097 13.9803 9.51928 14.9861 8.93877C15.4983 8.64135 16.0178 8.34882 16.5251 8.04419C16.5116 8.58541 16.5237 9.18251 16.5236 9.72797L16.5263 10.8175C16.5274 11.3083 16.581 11.7668 16.2043 12.1505C15.8091 12.553 15.2419 12.4803 14.7287 12.4799L13.2612 12.4786L8.18649 12.4814C6.6652 12.4797 6.81828 11.482 6.81889 10.3465L6.82285 8.05373Z" fill="#69C2F1"/>
<path d="M6.14247 12.297C6.12069 12.2877 6.52514 12.7788 6.60162 12.85C7.35016 13.5472 8.46221 13.3264 9.41529 13.3532C9.97108 13.3689 10.664 13.3711 11.2345 13.3516C11.2588 15.2521 10.6742 16.7807 9.51249 18.2505C9.45846 18.3031 9.4256 18.3577 9.38339 18.4198C9.25925 18.2748 9.00032 18.0309 8.8587 17.8893L7.83202 16.8631L4.5072 13.5352C5.09995 13.0151 5.48498 12.7361 6.14247 12.297Z" fill="#69C2F1"/>
<path d="M19.9882 6.03027C20.0377 6.1009 20.0152 7.75636 20.0141 7.97753C20.3155 8.10489 20.5566 8.26694 20.7483 8.53915C20.9677 8.84889 21.0533 9.23397 20.9857 9.60749C20.8378 10.4435 20.0513 10.8968 19.2385 10.7406C17.8228 10.4042 17.795 8.39909 19.1419 7.99091C19.1239 7.50376 19.1516 7.0023 19.13 6.51983C19.3094 6.4506 19.8064 6.14056 19.9882 6.03027Z" fill="#69C2F1"/>
</g>
<defs>
<clipPath id="clip0_25_312">
<rect width="25" height="33.432" fill="white"/>
</clipPath>
</defs>
</svg>
