<svg width="23" height="23" viewBox="0 0 23 23" fill="none" xmlns="http://www.w3.org/2000/svg">
<g clip-path="url(#clip0_25_301)">
<path d="M19.3278 3.07996C14.7957 -1.13252 7.7432 -1.00365 3.36799 3.37132C-1.00722 7.74653 -1.13585 14.7991 3.07662 19.3311L19.3278 3.07996ZM5.8619 15.5791L5.16817 16.2731C5.00355 16.4377 4.73664 16.4377 4.57203 16.2731C4.40741 16.1085 4.40741 15.8415 4.57203 15.6769L5.26599 14.9832C5.43061 14.8186 5.69752 14.8186 5.8619 14.9832C6.02651 15.1478 6.02651 15.4145 5.8619 15.5791ZM7.59646 13.8445L6.90273 14.5383C6.73811 14.7029 6.47144 14.7029 6.30683 14.5383C6.14221 14.3737 6.14221 14.1067 6.30683 13.9424L7.00056 13.2484C7.16517 13.0838 7.43208 13.0838 7.5967 13.2484C7.76107 13.413 7.76107 13.6799 7.5967 13.8445H7.59646ZM9.33102 12.11L8.63729 12.8039C8.47268 12.9686 8.20577 12.9686 8.04115 12.8039C7.87677 12.6393 7.87677 12.3724 8.04115 12.2078L8.73512 11.5141C8.89973 11.3495 9.16641 11.3495 9.33102 11.5141C9.49564 11.6787 9.49564 11.9454 9.33102 12.11ZM11.0658 10.3754L10.3719 11.0691C10.2075 11.2338 9.94057 11.2338 9.77595 11.0691C9.61134 10.9045 9.61134 10.6376 9.77595 10.473L10.4699 9.77928C10.6345 9.61467 10.9012 9.61467 11.0658 9.77928C11.2304 9.94389 11.2304 10.2106 11.0658 10.3752V10.3754ZM12.8004 8.64062L12.1067 9.33459C11.942 9.49897 11.6751 9.49897 11.5105 9.33459C11.3461 9.16997 11.3461 8.90306 11.5105 8.73845L12.2045 8.04472C12.3691 7.8801 12.636 7.8801 12.8004 8.04472C12.965 8.20933 12.965 8.47601 12.8004 8.64062ZM14.5352 6.90606L13.8412 7.60002C13.6766 7.7644 13.4099 7.7644 13.2453 7.60002C13.0807 7.43541 13.0807 7.1685 13.2453 7.00388L13.939 6.30992C14.1037 6.14554 14.3706 6.14554 14.5352 6.30992C14.6998 6.47453 14.6998 6.74144 14.5352 6.90606ZM16.2697 5.17149L15.5758 5.86523C15.4112 6.02984 15.1445 6.02984 14.9799 5.86523C14.8153 5.70085 14.8153 5.43394 14.9799 5.26932L15.6736 4.57536C15.8382 4.41074 16.1051 4.41074 16.2695 4.57536C16.4341 4.73997 16.4341 5.00688 16.2695 5.17149H16.2697ZM17.9657 2.8796C18.1304 3.04398 18.1304 3.31089 17.9657 3.4755L17.272 4.16923C17.1074 4.33384 16.8405 4.33384 16.6759 4.16923C16.5115 4.00462 16.5115 3.73794 16.6759 3.57333L17.3698 2.8796C17.5345 2.71498 17.8011 2.71498 17.9657 2.8796ZM15.6353 2.5325L16.3288 1.83876C16.4934 1.67415 16.7603 1.67415 16.9247 1.83876C17.0893 2.00338 17.0893 2.27005 16.9247 2.43467L16.2309 3.12863C16.0663 3.29325 15.7997 3.29325 15.635 3.12863C15.4704 2.96402 15.4704 2.69711 15.635 2.5325H15.6353ZM13.9393 4.22873L14.633 3.53476C14.7976 3.37015 15.0643 3.37015 15.2289 3.53476C15.3935 3.69937 15.3935 3.96628 15.2289 4.1309L14.5352 4.82463C14.3706 4.98924 14.1037 4.98924 13.939 4.82463C13.7747 4.66002 13.7747 4.39311 13.939 4.22873H13.9393ZM12.2045 5.96329L12.8984 5.26932C13.0631 5.10471 13.3297 5.10471 13.4944 5.26932C13.659 5.43394 13.659 5.70085 13.4944 5.86546L12.8004 6.55919C12.636 6.72381 12.3691 6.72381 12.2045 6.55919C12.0399 6.39458 12.0399 6.12767 12.2045 5.96305V5.96329ZM10.4699 7.69785L11.1636 7.00388C11.3283 6.83951 11.5952 6.83951 11.7596 7.00388C11.9242 7.1685 11.9242 7.43541 11.7596 7.60002L11.0658 8.29375C10.9012 8.45837 10.6345 8.45837 10.4699 8.29375C10.3053 8.12938 10.3053 7.86246 10.4699 7.69785ZM8.73512 9.43265L9.42909 8.73845C9.5937 8.57407 9.86061 8.57407 10.0252 8.73845C10.1898 8.90306 10.1898 9.16997 10.0252 9.33459L9.33126 10.0286C9.16664 10.1932 8.89973 10.1932 8.73512 10.0286C8.57051 9.86394 8.57051 9.59726 8.73512 9.43265ZM7.00056 11.167L7.69429 10.4732C7.8589 10.3086 8.12581 10.3086 8.29043 10.4732C8.45504 10.6376 8.45504 10.9045 8.29043 11.0691L7.59646 11.7629C7.43185 11.9275 7.16517 11.9275 7.00056 11.7629C6.83594 11.5985 6.83594 11.3316 7.00056 11.167ZM5.26599 12.9015L5.95972 12.2078C6.12434 12.0432 6.39125 12.0432 6.55586 12.2078C6.72048 12.3724 6.72048 12.6393 6.55586 12.8039L5.8619 13.4977C5.69752 13.6623 5.43061 13.6623 5.26599 13.4977C5.10138 13.3331 5.10138 13.0664 5.26599 12.9018V12.9015ZM3.53143 14.6361L4.22516 13.9424C4.38978 13.7778 4.65669 13.7778 4.82106 13.9424C4.98568 14.107 4.98568 14.3737 4.82106 14.5383L4.12733 15.2322C3.96272 15.3969 3.69581 15.3969 3.5312 15.2322C3.36682 15.0676 3.36682 14.8007 3.5312 14.6363L3.53143 14.6361ZM2.13339 17.0517C1.96289 17.0517 1.8091 16.9489 1.74396 16.7916C1.67858 16.634 1.71479 16.4527 1.8352 16.3323L2.52917 15.6384C2.69378 15.4738 2.96045 15.4738 3.12507 15.6384C3.28968 15.803 3.28968 16.0699 3.12507 16.2345L2.4311 16.9282C2.35232 17.0072 2.24509 17.0517 2.13339 17.0517ZM2.87603 17.3729L3.56976 16.6792C3.73438 16.5146 4.00129 16.5146 4.1659 16.6792C4.33051 16.8436 4.33051 17.1105 4.1659 17.2751L3.47193 17.9691C3.30756 18.1337 3.04064 18.1337 2.87603 17.9691C2.71142 17.8047 2.71142 17.5378 2.87603 17.3732V17.3729Z" fill="#69C2F1"/>
<path d="M3.67249 19.9267C8.20431 24.139 15.2569 24.0099 19.6316 19.6346C24.007 15.2599 24.1359 8.20712 19.9237 3.67529L3.67249 19.9267ZM17.1384 7.42756L17.8321 6.73359C17.9967 6.56921 18.2637 6.56921 18.4283 6.73359C18.5926 6.89821 18.5926 7.16512 18.4283 7.32973L17.7343 8.02346C17.5697 8.18808 17.3028 8.18808 17.1382 8.02346C16.9735 7.85885 16.9735 7.59217 17.1382 7.42756H17.1384ZM15.4036 9.16212L16.0976 8.46839C16.2619 8.30378 16.5289 8.30378 16.6935 8.46839C16.8581 8.63277 16.8581 8.89968 16.6935 9.06429L15.9997 9.75803C15.8351 9.92264 15.5682 9.92264 15.4036 9.75803C15.239 9.59365 15.239 9.32674 15.4036 9.16212ZM13.669 10.8967L14.363 10.2027C14.5276 10.0383 14.7943 10.0383 14.9589 10.2027C15.1235 10.3673 15.1235 10.6342 14.9589 10.7989L14.2652 11.4926C14.1006 11.6572 13.8336 11.6572 13.6693 11.4926C13.5047 11.328 13.5047 11.0613 13.6693 10.8967H13.669ZM11.9345 12.6313L12.6282 11.9375C12.7928 11.7729 13.0597 11.7729 13.2243 11.9375C13.389 12.1021 13.389 12.3688 13.2243 12.5334L12.5304 13.2274C12.3658 13.392 12.0989 13.392 11.9345 13.2274C11.7699 13.0628 11.7699 12.7959 11.9345 12.6315V12.6313ZM10.1997 14.3661L10.8936 13.6721C11.0583 13.5077 11.3249 13.5077 11.4895 13.6721C11.6542 13.8367 11.6542 14.1036 11.4895 14.2682L10.7958 14.962C10.6312 15.1266 10.3643 15.1266 10.1997 14.962C10.0351 14.7973 10.0351 14.5307 10.1997 14.3661ZM8.46511 16.1006L9.15908 15.4069C9.32346 15.2423 9.59037 15.2423 9.75498 15.4069C9.91959 15.5713 9.91959 15.8382 9.75498 16.0028L9.06101 16.6968C8.8964 16.8614 8.62972 16.8614 8.46511 16.6968C8.3005 16.5321 8.3005 16.2652 8.46511 16.1006ZM6.73078 17.8352L7.42451 17.1414C7.58913 16.9768 7.8558 16.9768 8.02042 17.1414C8.18503 17.3061 8.18503 17.5727 8.02042 17.7374L7.32669 18.4313C7.16207 18.5957 6.8954 18.5957 6.73078 18.4313C6.56617 18.2667 6.56617 17.9998 6.73078 17.8352ZM5.33274 20.2505C5.16224 20.2505 5.00845 20.1478 4.94331 19.9904C4.87817 19.8329 4.91415 19.6516 5.03455 19.5312L5.72852 18.8372C5.89313 18.6726 6.15981 18.6726 6.32442 18.8372C6.48903 19.0018 6.48903 19.2687 6.32442 19.4333L5.63045 20.1273C5.55144 20.2063 5.44444 20.2505 5.33274 20.2505ZM7.36525 20.4739L6.67152 21.1679C6.50691 21.3325 6.24 21.3325 6.07538 21.1679C5.91077 21.0033 5.91077 20.7366 6.07538 20.572L6.76935 19.878C6.93373 19.7134 7.20064 19.7134 7.36525 19.878C7.52987 20.0427 7.52987 20.3096 7.36525 20.4742V20.4739ZM9.06125 18.7779L8.36752 19.4717C8.2029 19.6363 7.93599 19.6363 7.77138 19.4717C7.607 19.3071 7.607 19.0404 7.77138 18.8758L8.46535 18.1818C8.62996 18.0174 8.89663 18.0174 9.06125 18.1818C9.22586 18.3464 9.22586 18.6133 9.06125 18.7779ZM10.7958 17.0434L10.1018 17.7374C9.93723 17.902 9.67032 17.902 9.50594 17.7374C9.34133 17.5727 9.34133 17.3058 9.50594 17.1412L10.1997 16.4475C10.3643 16.2829 10.6312 16.2829 10.7958 16.4475C10.9604 16.6121 10.9604 16.879 10.7958 17.0436V17.0434ZM12.5304 15.3088L11.8366 16.0028C11.672 16.1674 11.4051 16.1674 11.2405 16.0028C11.0759 15.8382 11.0759 15.5713 11.2405 15.4066L11.9345 14.7129C12.0989 14.5483 12.3658 14.5483 12.5304 14.7129C12.695 14.8775 12.695 15.1442 12.5304 15.3088ZM14.2652 13.574L13.571 14.2682C13.4064 14.4326 13.1397 14.4326 12.9751 14.2682C12.8105 14.1036 12.8105 13.8367 12.9751 13.6721L13.669 12.9781C13.8336 12.8135 14.1006 12.8135 14.2649 12.9781C14.4296 13.1427 14.4296 13.4096 14.2649 13.574H14.2652ZM15.9997 11.8395L15.3058 12.5334C15.1414 12.698 14.8745 12.698 14.7099 12.5334C14.5453 12.3688 14.5453 12.1019 14.7099 11.9373L15.4038 11.2436C15.5684 11.0789 15.8351 11.0789 15.9997 11.2436C16.1644 11.4082 16.1644 11.6748 15.9997 11.8395ZM17.7343 10.1049L17.0403 10.7989C16.8757 10.9635 16.609 10.9635 16.4444 10.7989C16.2798 10.6342 16.2798 10.3673 16.4444 10.2027L17.1382 9.50899C17.3028 9.34437 17.5697 9.34437 17.7343 9.50899C17.8989 9.6736 17.8989 9.94028 17.7343 10.1049ZM19.4689 8.37033L18.7751 9.06406C18.6105 9.22867 18.3436 9.22867 18.179 9.06406C18.0144 8.89968 18.0144 8.63277 18.179 8.46816L18.873 7.77419C19.0376 7.60981 19.3042 7.60981 19.4689 7.77419C19.6335 7.9388 19.6335 8.20571 19.4689 8.37033ZM21.1649 6.07843C21.3295 6.24281 21.3295 6.50972 21.1649 6.67433L20.4711 7.36806C20.3065 7.53268 20.0396 7.53268 19.8752 7.36806C19.7106 7.20368 19.7106 6.93677 19.8752 6.77216L20.569 6.07843C20.7336 5.91381 21.0005 5.91381 21.1649 6.07843ZM20.1243 5.6335L19.4303 6.32746C19.2657 6.49208 18.999 6.49208 18.8344 6.32746C18.6698 6.16285 18.6698 5.89594 18.8344 5.73133L19.5281 5.03759C19.6927 4.87298 19.9597 4.87298 20.1243 5.03759C20.2886 5.20221 20.2886 5.46888 20.1243 5.6335Z" fill="#69C2F1"/>
</g>
<defs>
<clipPath id="clip0_25_301">
<rect width="23" height="23" fill="white"/>
</clipPath>
</defs>
</svg>
