<svg width="23" height="23" viewBox="0 0 23 23" fill="none" xmlns="http://www.w3.org/2000/svg">
<g clip-path="url(#clip0_25_138)">
<path d="M0.274998 16.025C0.174998 19.05 0.674998 21.45 1.1125 21.8875C1.55 22.325 3.9625 22.8375 6.975 22.725L0.274998 16.025ZM12.85 0.600018C9.9375 1.12502 6.8625 2.27502 4.575 4.57502C2.2875 6.87502 1.125 9.93752 0.599998 12.85L10.1375 22.3875C13.0625 21.875 16.125 20.7125 18.4125 18.4125C20.7 16.1125 21.8625 13.05 22.3875 10.1375L12.85 0.600018ZM15 9.75002L9.75 15C9.2625 15.4875 8.4875 15.4875 8 15C7.5125 14.5125 7.5125 13.7375 8 13.25L13.25 8.00002C13.7375 7.51252 14.5125 7.51252 15 8.00002C15.4875 8.48752 15.4875 9.26252 15 9.75002ZM22.725 6.97502C22.825 3.95002 22.325 1.55002 21.8875 1.11252C21.45 0.675018 19.0375 0.162518 16.025 0.275018L22.725 6.97502Z" fill="#69C2F1"/>
</g>
<defs>
<clipPath id="clip0_25_138">
<rect width="23" height="23" fill="white"/>
</clipPath>
</defs>
</svg>
