<svg width="40" height="32" viewBox="0 0 40 32" fill="none" xmlns="http://www.w3.org/2000/svg">
<path d="M20.9247 2.85783C21.9224 2.72653 22.1006 3.53654 22.4642 4.32096L23.3517 6.27425C23.6867 7.01432 24.1113 7.73404 24.4171 8.49021C24.4899 8.67 24.5171 8.81579 24.6133 8.9901C24.8364 9.16716 27.6349 9.04671 28.1552 9.07048C29.3182 9.0798 30.2306 9.70521 30.745 10.774C31.2067 11.7337 31.0612 12.9314 31.0398 13.9975C31.2338 13.831 31.4631 13.6933 31.6734 13.5488C32.3705 13.07 33.0912 12.6511 33.8049 12.2017C34.3491 11.859 36.1641 10.577 36.7123 10.5165C36.9814 10.4868 37.2287 10.5508 37.4394 10.728C37.663 10.9165 37.7525 11.1293 37.7812 11.4174C37.8507 12.1172 37.8069 12.8319 37.8073 13.5348L37.8153 17.2687L37.8073 21.3741C37.8119 22.2511 37.8343 23.1315 37.8049 24.0071C37.7879 24.5143 37.5929 24.9728 37.0475 25.03C36.517 25.0856 36.1251 24.748 35.6878 24.4925C34.54 23.8221 33.425 23.0921 32.2747 22.4249C31.8944 22.2028 31.3526 21.9496 31.0298 21.6686C31.0168 22.9549 31.2672 24.4954 30.297 25.5224C29.3222 26.5547 27.9186 26.4034 26.6445 26.4026L23.3796 26.4003L12.0486 26.4016L9.14129 26.4195C8.36279 26.4291 7.499 26.4834 6.72858 26.3475C5.69414 26.1649 4.67672 25.2087 4.55434 24.1149C4.47588 23.4138 4.50847 22.5829 4.50817 21.8685L4.5082 18.1011L4.50623 14.1874C4.5056 13.2675 4.48353 12.2885 4.5994 11.375C4.70826 10.5171 5.61889 9.46473 6.41114 9.21784C7.11967 8.99706 8.16566 9.06966 8.92413 9.07411L12.0823 9.08469C12.7588 9.08298 13.4744 9.10247 14.1433 9.01973C13.8336 8.37973 12.2429 7.58456 11.6701 7.05243C11.1946 6.61055 10.9942 6.28593 11.4433 5.72599C11.5657 5.68045 11.7532 5.64113 11.8842 5.60942C11.9374 5.62836 11.9896 5.65007 12.0407 5.67445C12.2251 5.76336 15.0055 8.22004 15.2304 8.47863C15.3852 8.65665 15.4756 8.85945 15.552 9.08185C16.5494 9.02589 17.7064 9.06911 18.7687 9.02147C18.4947 8.46188 18.062 7.96319 17.708 7.45438C17.2301 6.76736 16.7775 6.0711 16.2553 5.41754C16.0682 5.18339 15.8179 4.72401 15.8741 4.42082C15.9348 3.93336 16.7297 3.68754 17.0155 4.08346C17.9232 5.34075 18.8274 6.61562 19.7012 7.90034C19.9475 8.2624 20.2355 8.58082 20.4772 8.93678C21.2096 8.92832 21.651 8.92274 22.3807 8.80617C22.241 8.22223 21.9619 7.73305 21.7309 7.1924C21.424 6.49415 21.1411 5.75415 20.7879 5.07973C20.4747 4.48178 19.9038 3.10213 20.9247 2.85783ZM18.036 25.533L25.4208 25.5319L27.2662 25.5328C28.0416 25.5349 28.7966 25.6222 29.4044 25.0153C30.1535 24.2674 30.049 23.4438 30.0483 22.4635L30.0447 20.1119L30.05 12.3877C30.047 11.849 30.1004 11.3939 29.8136 10.917C29.1877 9.87699 27.9415 10.0196 26.9102 10.0248L24.7855 10.0285C22.4816 10.0307 20.1174 9.99199 17.8219 10.0157L17.7497 10.0166L10.4376 10.0293C9.43302 10.0308 8.40793 10.0106 7.41621 10.0573C5.30673 10.1568 5.52612 11.7389 5.54181 13.3764C5.54512 13.7238 5.54465 14.1246 5.54271 14.4712L5.54859 18.2979C5.54752 20.1144 5.53961 21.9307 5.5563 23.7466C5.56458 24.649 6.14371 25.3503 7.01144 25.4812C7.39344 25.5389 7.83427 25.5264 8.25136 25.5264C8.8393 25.5244 9.42722 25.5256 10.0151 25.5302L18.036 25.533ZM31.0455 20.4635C31.382 20.8679 32.6776 21.4746 33.2374 21.8895C34.1762 22.4262 35.1032 22.9847 36.0172 23.5646C36.2629 23.7177 36.6732 23.9167 36.8782 24.072C36.9163 21.6928 36.8872 19.2644 36.8912 16.8809L36.8949 13.4151C36.8952 13.1371 36.939 11.7248 36.8508 11.5802L36.7717 11.5704C36.3434 11.7302 35.8907 12.0434 35.4955 12.2893L33.7235 13.3961C33.1403 13.757 31.5008 14.6191 31.1293 15.0779C31.0101 15.432 31.0618 17.9631 31.0548 18.4815C31.0495 18.8659 31.0315 20.0822 31.0455 20.4635Z" fill="#69C2F1"/>
<path d="M23.1741 21.0376C23.0887 20.4915 23.0737 14.5325 23.2049 14.367C23.2598 14.2978 23.5231 14.2912 23.617 14.2857C24.0844 14.258 26.8463 14.2259 27.1351 14.3319C27.1536 14.3387 27.1845 14.3709 27.2014 14.3843C27.3015 14.586 27.3152 14.9955 27.129 15.1463C27.0246 15.1938 26.4267 15.1684 26.2752 15.1619C25.6395 15.1349 24.6938 15.2775 24.0931 15.2163C24.0952 15.4933 24.0564 16.9675 24.1371 17.1178C24.4614 17.3255 26.1967 17.1051 26.6818 17.2438C27.0993 17.3632 27.0326 17.672 26.9952 18.0494C26.3992 18.2619 24.8424 18.0652 24.1306 18.222C24.0796 18.363 24.0966 19.8621 24.0955 20.109L24.1362 20.1613C24.9995 20.2325 25.8586 20.1918 26.7241 20.2005C27.0709 20.204 27.3437 20.2547 27.2891 20.6983C27.2201 21.2586 26.6792 21.1132 26.2918 21.096C26.2792 21.0847 26.273 21.0786 26.2584 21.0683C26.1344 20.9808 23.4729 20.9803 23.1741 21.0376Z" fill="#69C2F1"/>
<path d="M19.4155 18.6054C19.847 17.2894 20.3629 15.9907 20.7401 14.652C20.8532 14.2506 21.5386 14.1778 21.7439 14.4412C21.8593 14.8764 20.9999 16.78 20.8108 17.3165L20.0864 19.4218C19.9221 19.8926 19.7681 20.403 19.5216 20.8363C19.4589 20.9465 19.3963 21.053 19.2696 21.0873C19.0471 21.1473 18.7402 21.1244 18.5411 20.9994C18.1432 20.7497 17.2154 17.7121 16.9898 17.1053C16.7182 16.3746 16.3138 15.6202 16.1486 14.8545C16.1185 14.7149 16.0774 14.5071 16.1559 14.377C16.1945 14.313 16.2699 14.2821 16.3399 14.2687C16.5644 14.2256 16.811 14.2882 17.0313 14.3352C17.2303 14.7208 17.3779 15.339 17.5032 15.7755C17.8394 16.9465 18.4359 18.0971 18.7629 19.255C18.8467 19.5049 18.9086 19.7304 18.9768 19.9855C19.12 19.5244 19.2762 19.0677 19.4155 18.6054Z" fill="#69C2F1"/>
<path d="M8.77344 14.3199C8.86742 14.3141 8.96173 14.3164 9.0553 14.3268C9.17939 14.3398 9.26832 14.362 9.34951 14.4653C9.3694 14.5308 9.39577 14.6362 9.39771 14.7026C9.44455 16.3118 9.3907 17.9283 9.43036 19.5397C9.4358 19.7615 9.44171 19.9992 9.41343 20.2184C10.2024 20.1184 11.2928 20.2325 12.1088 20.2148C12.2782 20.2111 12.5088 20.8562 12.0842 21.0959C11.454 21.0926 10.8237 21.0945 10.1935 21.1014C9.64381 21.1057 8.96166 21.1443 8.43734 21.0251C8.35115 20.5085 8.35332 14.8368 8.48531 14.4885C8.55969 14.3815 8.65133 14.3635 8.77344 14.3199Z" fill="#69C2F1"/>
<path d="M13.9316 14.3171C14.1576 14.3077 14.4814 14.2592 14.6563 14.404C14.7027 14.5217 14.7197 14.724 14.7207 14.8538C14.7369 16.8781 14.7589 18.9077 14.7259 20.9314C14.7244 21.0242 14.6489 21.0499 14.5813 21.095C14.3839 21.089 13.9216 21.1176 13.8057 20.9489C13.7417 20.6595 13.7342 18.8855 13.759 18.5741C13.8302 17.6814 13.6076 14.9984 13.9316 14.3171Z" fill="#69C2F1"/>
<path d="M23.1758 21.0374C23.4745 20.9801 26.1361 20.9806 26.2601 21.0681C26.2747 21.0784 26.2809 21.0844 26.2934 21.0957C26.1947 21.0984 25.9139 21.1032 25.8341 21.0958C25.4252 21.0577 23.3647 21.1865 23.1758 21.0374Z" fill="#FDFBFC" fill-opacity="0.972549"/>
</svg>
