<svg width="24" height="24" viewBox="0 0 24 24" fill="none" xmlns="http://www.w3.org/2000/svg">
<g clip-path="url(#clip0_25_340)">
<path fill-rule="evenodd" clip-rule="evenodd" d="M13.8686 0.143889C13.7018 0.117775 13.5314 0.124773 13.3673 0.164484C13.2032 0.204196 13.0485 0.275842 12.9121 0.375334C12.7757 0.474825 12.6602 0.600213 12.5722 0.744337C12.4843 0.888462 12.4255 1.0485 12.3994 1.21532C12.3733 1.38213 12.3803 1.55246 12.42 1.71657C12.4597 1.88068 12.5314 2.03537 12.6309 2.17179C12.7304 2.30821 12.8558 2.4237 12.9999 2.51167C13.144 2.59963 13.304 2.65835 13.4709 2.68446C15.8096 3.06106 17.921 4.30389 19.3853 6.16591C20.8497 8.02793 21.5598 10.3728 21.3745 12.7344C21.1891 15.096 20.122 17.3014 18.3851 18.9122C16.6482 20.523 14.3688 21.4213 12 21.4285C10.1094 21.4293 8.26218 20.8617 6.69823 19.7994C5.13428 18.7371 3.92581 17.2291 3.22971 15.4713C3.17122 15.3094 3.08081 15.161 2.96387 15.0347C2.84692 14.9084 2.70581 14.8069 2.54889 14.7362C2.39198 14.6654 2.22246 14.6269 2.05039 14.6229C1.87832 14.6189 1.7072 14.6495 1.54717 14.7129C1.38715 14.7763 1.24147 14.8711 1.11879 14.9918C0.9961 15.1125 0.8989 15.2567 0.83295 15.4156C0.766999 15.5746 0.733641 15.7452 0.734852 15.9173C0.736063 16.0894 0.771819 16.2596 0.84 16.4176C1.86988 19.0121 3.77179 21.1665 6.21849 22.5102C8.66519 23.8538 11.5037 24.3028 14.2457 23.7798C16.9876 23.2568 19.4615 21.7945 21.2418 19.6445C23.0221 17.4945 23.9975 14.7913 24 11.9999C24.0006 9.14074 22.9802 6.37534 21.1228 4.20171C19.2654 2.02809 16.6928 0.589099 13.8686 0.143889ZM10.5669 1.13303C10.6091 1.2967 10.6187 1.46709 10.595 1.63446C10.5713 1.80183 10.5149 1.96289 10.4289 2.10842C10.3429 2.25395 10.2291 2.3811 10.0939 2.4826C9.95875 2.58409 9.80489 2.65793 9.64114 2.69989C9.21175 2.81065 8.7907 2.95158 8.38114 3.1216C8.22524 3.18644 8.0581 3.21993 7.88926 3.22017C7.72042 3.22041 7.55318 3.1874 7.3971 3.12301C7.24102 3.05861 7.09915 2.96411 6.97959 2.84489C6.86003 2.72567 6.76512 2.58407 6.70029 2.42817C6.63545 2.27228 6.60196 2.10514 6.60172 1.93629C6.60147 1.76745 6.63449 1.60021 6.69888 1.44413C6.76327 1.28805 6.85778 1.14618 6.977 1.02662C7.09622 0.90706 7.23782 0.812153 7.39371 0.747317C7.91143 0.530175 8.44743 0.350746 9.00171 0.209032C9.16527 0.167033 9.33549 0.157663 9.50266 0.181456C9.66984 0.20525 9.83069 0.26174 9.97603 0.347703C10.1214 0.433665 10.2484 0.547415 10.3497 0.682457C10.4511 0.817499 10.5249 0.969473 10.5669 1.13303ZM5.46 3.24675C5.69717 3.49143 5.8275 3.82027 5.82236 4.16099C5.81721 4.50172 5.67702 4.82647 5.43257 5.06389C4.79498 5.685 4.24688 6.39177 3.804 7.16389C3.72251 7.31468 3.61168 7.44765 3.47805 7.55499C3.34442 7.66233 3.19067 7.74186 3.02585 7.78891C2.86103 7.83596 2.68847 7.84959 2.51831 7.82898C2.34815 7.80837 2.18383 7.75394 2.03501 7.6689C1.88619 7.58386 1.75588 7.46993 1.65173 7.33379C1.54759 7.19765 1.47172 7.04207 1.42858 6.87618C1.38544 6.7103 1.3759 6.53746 1.40053 6.36784C1.42516 6.19821 1.48346 6.03523 1.572 5.88846C2.13297 4.90555 2.83016 4.00693 3.64286 3.21932C3.88754 2.98215 4.21638 2.85182 4.55711 2.85696C4.89783 2.8621 5.22258 3.0023 5.46 3.24675ZM1.57029 9.05132C1.90783 9.09891 2.21266 9.2786 2.41776 9.55088C2.62285 9.82316 2.71143 10.1657 2.664 10.5033C2.60447 10.9437 2.57355 11.3875 2.57143 11.8319C2.57143 12.1729 2.43597 12.4999 2.19485 12.741C1.95373 12.9821 1.62671 13.1176 1.28571 13.1176C0.944722 13.1176 0.617695 12.9821 0.376577 12.741C0.135459 12.4999 0 12.1729 0 11.8319C0 11.2605 0.0394286 10.6982 0.118286 10.145C0.165876 9.80749 0.345565 9.50266 0.617848 9.29756C0.89013 9.09246 1.23272 9.00389 1.57029 9.05132ZM7.71429 15.2262V8.7736C7.71444 8.4815 7.78923 8.19429 7.93156 7.93921C8.07389 7.68413 8.27904 7.46966 8.52753 7.31613C8.77603 7.1626 9.05964 7.07511 9.35144 7.06197C9.64324 7.04883 9.93357 7.11046 10.1949 7.24103L16.6474 10.4673C16.9318 10.6098 17.1709 10.8287 17.338 11.0993C17.5051 11.37 17.5936 11.6818 17.5936 11.9999C17.5936 12.318 17.5051 12.6298 17.338 12.9004C17.1709 13.1711 16.9318 13.3899 16.6474 13.5325L10.1949 16.7587C9.93357 16.8893 9.64324 16.951 9.35144 16.9378C9.05964 16.9247 8.77603 16.8372 8.52753 16.6837C8.27904 16.5301 8.07389 16.3156 7.93156 16.0606C7.78923 15.8055 7.71444 15.5183 7.71429 15.2262Z" fill="#69C2F1"/>
</g>
<defs>
<clipPath id="clip0_25_340">
<rect width="24" height="24" fill="white"/>
</clipPath>
</defs>
</svg>
