<svg width="59" height="59" viewBox="0 0 59 59" fill="none" xmlns="http://www.w3.org/2000/svg">
<path d="M24.8497 2.83141C28.1086 2.28772 30.9361 2.2122 34.2183 2.83611C34.7636 2.93594 35.3049 3.05469 35.8419 3.19219C38.4776 3.87412 41.6065 5.22622 43.8536 6.79502C44.2218 7.01578 44.8835 7.49905 45.2258 7.76852C47.0643 9.16453 48.7156 10.7911 50.1393 12.6083C50.5018 13.0686 50.9019 13.589 51.2179 14.0838C51.3974 14.3645 51.9871 15.2427 52.1153 15.5066C53.3973 17.526 54.9219 21.2249 55.3062 23.5885C55.4257 24.0873 55.5683 24.7688 55.6432 25.274C56.0875 27.6579 56.0918 30.7227 55.7855 33.1294C55.7642 33.2973 55.6671 34.0919 55.6196 34.2172C55.5162 34.7412 55.3574 35.3825 55.2693 35.8809C54.7839 38.1818 53.6961 40.7432 52.5794 42.8045C52.4746 42.9986 52.0577 43.7508 51.9422 43.8989C51.7411 44.2253 51.2421 45.0412 50.9938 45.3244C50.7921 45.668 50.3721 46.2117 50.1186 46.5306C48.705 48.3069 46.7725 50.3091 44.9002 51.6061C44.4453 51.9354 43.9827 52.2537 43.5128 52.5611C41.3282 53.9934 38.819 55.0957 36.3098 55.8078C36.0692 55.8761 35.8255 55.9357 35.5852 56.0051L34.0155 56.339C33.6386 56.4347 32.9193 56.5171 32.5246 56.5675C29.8855 56.9043 27.5815 56.7438 24.9797 56.3347C24.859 56.2935 24.5035 56.2296 24.3648 56.2002L23.3223 55.9717C23.2104 55.9277 22.714 55.8 22.5765 55.7606C22.0951 55.6252 21.6181 55.4748 21.1461 55.3097C19.158 54.6045 17.2572 53.6737 15.481 52.5354C15.0068 52.2272 14.5403 51.9065 14.0822 51.5747C11.9598 50.068 9.4585 47.4337 7.99503 45.2869C7.69343 44.8548 7.34666 44.3333 7.07952 43.8836C5.70356 41.642 4.30499 38.44 3.75242 35.8394C3.61932 35.2811 3.5025 34.7191 3.40205 34.1541C2.91423 31.5086 2.89052 27.8473 3.38424 25.1874C3.47767 24.6531 3.60794 24.0587 3.71594 23.5245C3.88128 22.9012 4.00109 22.311 4.19578 21.6773C4.84752 19.5558 5.75916 17.343 6.93481 15.459C7.18556 15.0113 7.55501 14.463 7.84496 14.039C7.99915 13.7277 8.43286 13.1666 8.64806 12.8852C9.87076 11.2731 11.2719 9.80451 12.8248 8.50743C13.1647 8.22687 13.5449 7.91081 13.9102 7.66738C14.3561 7.34092 14.8114 7.02751 15.2756 6.72758C15.9002 6.27808 16.6466 5.85892 17.3295 5.49794C19.1926 4.49342 21.1696 3.71622 23.218 3.18297C23.7627 3.06973 24.3066 2.95253 24.8497 2.83141Z" fill="url(#paint0_linear_67_2085)"/>
<path d="M35.8419 3.19238C38.4776 3.87431 41.6065 5.22641 43.8536 6.79521C43.3494 7.47334 42.656 8.60552 41.9937 9.05695C41.6287 9.30574 40.9696 9.37932 40.5432 9.25904C39.8792 9.07178 39.2243 8.58316 38.5684 8.317C38.2276 8.17324 37.8761 8.02347 37.5266 7.90334C36.777 7.64562 36.1093 7.51442 35.6783 6.77948C35.2171 5.99252 35.4043 5.26366 35.5812 4.42686C35.6682 4.01596 35.7399 3.60259 35.8419 3.19238Z" fill="url(#paint1_linear_67_2085)"/>
<path d="M15.2756 6.72771C15.9003 6.27821 16.6466 5.85905 17.3295 5.49808C19.1926 4.49355 21.1696 3.71635 23.218 3.18311C23.2986 3.60587 23.3872 4.02711 23.4837 4.44656C23.6887 5.35645 23.8929 6.05688 23.3218 6.89495C22.8517 7.5846 22.2377 7.68229 21.4978 7.93471C21.1561 8.05452 20.8193 8.18794 20.4882 8.33457C19.3526 8.83123 18.2824 9.86379 17.0247 8.96755C16.2742 8.43278 15.8895 7.36338 15.2756 6.72771Z" fill="url(#paint2_linear_67_2085)"/>
<path d="M35.5852 56.0054C35.5507 55.1633 35.065 54.0934 35.2401 53.213C35.3404 52.7088 35.6192 52.2905 36.0396 51.9906C36.4069 51.7285 36.7073 51.689 37.1228 51.5481C37.4754 51.428 37.8243 51.2966 38.1685 51.1543C38.5364 50.9999 38.8979 50.8308 39.2526 50.6476C39.8939 50.3174 40.4116 49.9625 41.1721 50.1253C41.9995 50.3024 42.3835 50.9302 42.8315 51.5741C43.0608 51.9019 43.2881 52.2309 43.5128 52.5613C41.3282 53.9937 38.819 55.0959 36.3098 55.8081C36.0692 55.8763 35.8255 55.936 35.5852 56.0054Z" fill="url(#paint3_linear_67_2085)"/>
<path d="M55.3062 23.5887C54.6015 23.7409 53.3875 24.0432 52.7007 23.9026C51.2626 23.6081 51.1554 22.1296 50.6844 21.0001C50.5407 20.6539 50.3845 20.3131 50.216 19.9783C50.0236 19.5979 49.7816 19.2002 49.6747 18.7923C49.5822 18.4471 49.5805 18.0839 49.6695 17.7377C49.883 16.9148 50.4568 16.5826 51.124 16.145C51.4522 15.93 51.778 15.7084 52.1153 15.5068C53.3973 17.5262 54.9219 21.2251 55.3062 23.5887Z" fill="url(#paint4_linear_67_2085)"/>
<path d="M15.481 52.5356L16.1769 51.5175C16.6426 50.8407 17.0049 50.2787 17.8781 50.1188C18.1727 50.0646 18.476 50.0808 18.7633 50.1655C19.1777 50.2896 20.1467 50.8448 20.6501 51.0701C21.2299 51.3296 22.5037 51.6845 22.9059 51.9631C23.3363 52.265 23.6299 52.7248 23.7227 53.2422C23.8481 53.9702 23.4771 55.205 23.3224 55.9718C23.2105 55.9278 22.714 55.8001 22.5765 55.7607C22.0952 55.6253 21.6181 55.4749 21.1461 55.3098C19.158 54.6046 17.2572 53.6738 15.481 52.5356Z" fill="url(#paint5_linear_67_2085)"/>
<path d="M6.93481 15.459C7.26055 15.6723 7.58494 15.8876 7.908 16.1049C8.58851 16.5611 9.17912 16.933 9.3658 17.7991C9.53885 18.5281 9.22351 19.1145 8.8821 19.7368C8.68586 20.0989 8.51603 20.4895 8.34862 20.8636C7.84346 21.9926 7.77196 23.6559 6.26533 23.9075C5.51276 24.0332 4.48277 23.6629 3.71594 23.5245C3.88127 22.9012 4.00109 22.3109 4.19578 21.6772C4.84752 19.5558 5.75916 17.343 6.93481 15.459Z" fill="url(#paint6_linear_67_2085)"/>
<path d="M34.2183 2.83643C34.7636 2.93625 35.3049 3.055 35.8419 3.1925C35.7399 3.60271 35.6682 4.01608 35.5812 4.42698C35.4043 5.26378 35.2171 5.99264 35.6783 6.7796C36.1093 7.51454 36.777 7.64574 37.5266 7.90346C37.8761 8.02359 38.2276 8.17336 38.5684 8.31712C39.2243 8.58328 39.8791 9.0719 40.5432 9.25916C40.9696 9.37944 41.6287 9.30586 41.9937 9.05707C42.656 8.60564 43.3494 7.47346 43.8536 6.79533C44.2218 7.01609 44.8835 7.49936 45.2257 7.76883C45.0857 7.93788 44.9129 8.22836 44.7864 8.41807C44.1938 9.30641 43.7597 10.1214 42.798 10.6646C41.973 11.1272 40.9992 11.2468 40.0869 10.9977C39.3592 10.7938 38.6516 10.2935 37.9758 9.99326C36.3988 9.29243 35.0431 9.23096 34.1194 7.53983C33.4877 6.38308 33.6023 5.41857 33.9002 4.18602C34.008 3.74053 34.0872 3.29397 34.2183 2.83643Z" fill="#FDFDFD"/>
<path d="M23.218 3.1831C23.7627 3.06986 24.3066 2.95266 24.8496 2.83154C24.9723 3.22248 25.048 3.67965 25.1395 4.07384C25.435 5.3472 25.5619 6.39448 24.9288 7.58609C24.0219 9.29271 22.7633 9.28364 21.1932 9.94771C20.5257 10.23 19.8095 10.7395 19.1183 10.954C18.2335 11.2247 17.2774 11.1331 16.46 10.6994C15.5166 10.1999 15.0361 9.4611 14.4758 8.59255C14.2939 8.31048 14.059 7.96513 13.9102 7.66751C14.356 7.34105 14.8113 7.02764 15.2755 6.72771C15.8895 7.36337 16.2741 8.43278 17.0246 8.96755C18.2823 9.86379 19.3526 8.83123 20.4882 8.33457C20.8193 8.18793 21.1561 8.05452 21.4978 7.93471C22.2377 7.68228 22.8517 7.5846 23.3217 6.89495C23.8929 6.05688 23.6886 5.35645 23.4836 4.44656C23.3871 4.02711 23.2986 3.60587 23.218 3.1831Z" fill="#FDFDFD"/>
<path d="M51.9422 43.8992C51.3274 43.4853 50.3505 42.9696 49.9328 42.3781C49.0449 41.1212 50.0212 39.9257 50.5055 38.7886C50.659 38.425 50.7993 38.056 50.9264 37.682C51.0589 37.2839 51.1718 36.8382 51.3775 36.4738C51.7229 35.8611 52.4161 35.4387 53.1277 35.4765C53.4682 35.4946 53.8015 35.5784 54.1348 35.6508C54.5119 35.7323 54.8902 35.8092 55.2693 35.8812C54.7839 38.1822 53.696 40.7435 52.5794 42.8048C52.4746 42.999 52.0577 43.7512 51.9422 43.8992Z" fill="url(#paint7_linear_67_2085)"/>
<path d="M3.75238 35.8396C4.09503 35.7492 4.43961 35.6829 4.78739 35.6031C5.51529 35.4363 6.13278 35.2704 6.82185 35.6688C7.63929 36.1412 7.79745 37.0055 8.08862 37.826C8.3574 38.5834 8.66914 39.284 9.05189 39.9895C9.17776 40.2214 9.29028 40.4605 9.3532 40.7178C9.48535 41.2432 9.3999 41.7995 9.11625 42.2613C8.66174 42.9859 7.74119 43.3581 7.07948 43.8838C5.70353 41.6422 4.30496 38.4402 3.75238 35.8396Z" fill="url(#paint8_linear_67_2085)"/>
<path d="M51.2179 14.084C51.3974 14.3647 51.9871 15.2429 52.1153 15.5068C51.778 15.7083 51.4521 15.9299 51.124 16.145C50.4568 16.5825 49.8829 16.9148 49.6695 17.7377C49.5804 18.0838 49.5822 18.447 49.6746 18.7922C49.7815 19.2001 50.0235 19.5979 50.216 19.9783C50.3845 20.313 50.5406 20.6538 50.6844 21C51.1554 22.1296 51.2626 23.608 52.7007 23.9025C53.3875 24.0431 54.6015 23.7408 55.3061 23.5887C55.4257 24.0874 55.5683 24.7689 55.6432 25.2741C54.5424 25.5065 53.359 25.8826 52.2648 25.6234C51.3041 25.3894 50.4735 24.7872 49.9524 23.9465C49.4816 23.1806 49.3359 22.2685 48.9746 21.4677C48.3443 20.0696 47.5589 19.0446 47.943 17.4205C48.3734 15.6011 49.7616 14.9806 51.2179 14.084Z" fill="#FDFDFD"/>
<path d="M7.84494 14.0391C9.23513 14.8919 10.6292 15.58 11.0469 17.3107C11.1816 17.8795 11.1867 18.4714 11.0616 19.0425C10.8946 19.7949 10.3969 20.6007 10.0681 21.3339C9.70836 22.136 9.44537 23.2934 9.00886 23.9911C8.49051 24.8241 7.65748 25.4122 6.69905 25.6218C5.85738 25.8094 5.18593 25.6384 4.37365 25.4396C4.06433 25.364 3.72727 25.302 3.41144 25.2273L3.38422 25.1874C3.47764 24.6532 3.60792 24.0587 3.71592 23.5246C4.48275 23.663 5.51274 24.0333 6.26531 23.9076C7.77194 23.656 7.84344 21.9926 8.3486 20.8636C8.51601 20.4895 8.68583 20.0989 8.88208 19.7369C9.22349 19.1146 9.53883 18.5281 9.36577 17.7992C9.17909 16.933 8.58849 16.5611 7.90797 16.105C7.58491 15.8877 7.26053 15.6723 6.93479 15.459C7.18554 15.0113 7.55498 14.463 7.84494 14.0391Z" fill="#FDFDFD"/>
<path d="M34.0155 56.3395L33.953 56.3012C33.6577 55.2776 33.3209 53.8608 33.526 52.83C33.7208 51.8845 34.2846 51.0557 35.0921 50.5268C35.7711 50.0771 36.9479 49.823 37.7425 49.4559C38.4664 49.1218 39.1699 48.6533 39.9143 48.4407C40.4032 48.301 40.9748 48.2771 41.4737 48.3889C43.2835 48.7945 43.9882 50.1871 44.9002 51.6065C44.4453 51.9358 43.9827 52.2541 43.5128 52.5615C43.2881 52.2311 43.0608 51.9021 42.8315 51.5742C42.3835 50.9304 41.9995 50.3026 41.1721 50.1255C40.4116 49.9627 39.8939 50.3176 39.2526 50.6478C38.898 50.831 38.5364 51.0001 38.1685 51.1545C37.8243 51.2968 37.4754 51.4282 37.1228 51.5483C36.7074 51.6892 36.4069 51.7287 36.0396 51.9908C35.6193 52.2907 35.3404 52.709 35.2401 53.2132C35.065 54.0936 35.5507 55.1635 35.5853 56.0056L34.0155 56.3395Z" fill="#FDFDFD"/>
<path d="M50.9938 45.3243C49.3972 44.4468 47.9167 43.4524 47.8228 41.4427C47.7995 40.9958 47.8531 40.5482 47.9816 40.1195C48.1602 39.5263 48.6508 38.673 48.9187 38.0464C49.2212 37.3383 49.4407 36.4277 49.7559 35.791C49.9042 35.4865 50.097 35.2059 50.3277 34.9584C51.001 34.2131 51.9462 33.7706 52.9499 33.7309C53.1662 33.724 53.3832 33.7361 53.5975 33.7669C53.8337 33.8003 55.5196 34.1244 55.6196 34.2172C55.5162 34.7412 55.3574 35.3825 55.2693 35.8809C54.8901 35.8089 54.5119 35.7319 54.1348 35.6504C53.8015 35.5781 53.4682 35.4943 53.1276 35.4761C52.4161 35.4384 51.7229 35.8607 51.3775 36.4735C51.1718 36.8379 51.0589 37.2836 50.9264 37.6817C50.7993 38.0556 50.659 38.4247 50.5055 38.7882C50.0212 39.9253 49.0449 41.1209 49.9328 42.3778C50.3505 42.9692 51.3274 43.4849 51.9422 43.8989C51.7411 44.2253 51.2421 45.0411 50.9938 45.3243Z" fill="#FDFDFD"/>
<path d="M14.0822 51.5748C14.9997 50.1747 15.7357 48.7642 17.5313 48.3889C18.0376 48.2805 18.5619 48.2906 19.0636 48.4182C19.7202 48.5836 20.6942 49.1601 21.3752 49.4649C22.0158 49.7518 23.3505 50.1591 23.8556 50.4951C24.6667 51.0344 25.2275 51.8767 25.4121 52.8332C25.6604 54.1336 25.1785 55.1197 24.9797 56.3348C24.859 56.2936 24.5035 56.2297 24.3647 56.2003L23.3223 55.9719C23.4771 55.205 23.8481 53.9702 23.7227 53.2422C23.6299 52.7248 23.3363 52.2651 22.9059 51.9631C22.5037 51.6846 21.2299 51.3296 20.6501 51.0701C20.1467 50.8448 19.1776 50.2896 18.7633 50.1655C18.476 50.0808 18.1727 50.0647 17.8781 50.1188C17.0049 50.2787 16.6425 50.8408 16.1769 51.5175L15.481 52.5356C15.0067 52.2273 14.5403 51.9067 14.0822 51.5748Z" fill="#FDFDFD"/>
<path d="M3.40204 34.1545C3.75849 34.0494 4.18048 33.9831 4.5379 33.8975C5.66671 33.627 6.58556 33.5181 7.64292 34.1053C9.33393 35.0444 9.38002 36.4102 10.0581 37.9973C10.3238 38.6193 10.8267 39.4994 11.0022 40.1026C11.2829 41.0908 11.1625 42.1498 10.667 43.0497C10.094 44.0871 8.99298 44.7008 7.99502 45.2873C7.69342 44.8552 7.34665 44.3338 7.07951 43.884C7.74122 43.3583 8.66177 42.9861 9.11628 42.2615C9.39993 41.7997 9.48538 41.2435 9.35323 40.718C9.29031 40.4607 9.17779 40.2216 9.05192 39.9897C8.66917 39.2842 8.35743 38.5836 8.08865 37.8262C7.79748 37.0057 7.63932 36.1414 6.82188 35.669C6.1328 35.2706 5.51532 35.4365 4.78741 35.6033C4.43964 35.6831 4.09506 35.7494 3.75241 35.8398C3.61931 35.2815 3.50249 34.7195 3.40204 34.1545Z" fill="#FDFDFD"/>
<path d="M28.8636 10.5583C28.9025 10.5554 28.9414 10.5528 28.9803 10.5507C33.5963 10.3037 38.3543 12.3725 41.7569 15.4158C45.5017 18.8104 47.7554 23.5461 48.0276 28.5932C48.2872 33.713 46.5129 38.7277 43.0907 42.5445C39.7884 46.234 35.1444 48.4454 30.1986 48.6839C25.493 48.8441 20.9098 47.1669 17.4192 44.0071C13.5573 40.5446 11.2437 35.6791 10.9954 30.4985C10.7955 25.4482 12.5808 20.5205 15.9692 16.7704C19.2675 13.0637 23.9093 10.8274 28.8636 10.5583Z" fill="#FDFDFD"/>
<path d="M29.0413 12.3138C29.0926 12.3107 29.1442 12.3082 29.1958 12.3063C33.4551 12.1452 37.6159 13.9638 40.7195 16.8033C47.843 23.3201 48.2302 34.599 41.6128 41.6176C38.6159 44.7961 34.4415 46.813 30.047 46.9659C30.0254 46.9674 30.0038 46.9688 29.9825 46.9702C29.5305 46.9956 28.9924 46.9656 28.5375 46.9406C24.8108 46.736 21.2298 45.1112 18.4568 42.6389C15.0274 39.5261 12.9641 35.1864 12.7147 30.5617C12.4832 25.9163 14.0985 21.3679 17.2081 17.9091C19.5743 15.268 22.9142 13.3064 26.3974 12.6106C27.3006 12.4302 28.126 12.3645 29.0413 12.3138Z" fill="url(#paint9_linear_67_2085)"/>
<path d="M22.1823 22.7657C23.1148 22.7204 24.3477 22.757 25.3056 22.7594C25.4856 23.2203 25.6732 23.8043 25.8391 24.2807L27.1362 28.0737L28.6014 32.271C28.8968 33.107 29.216 33.9618 29.4905 34.8021L32.2302 26.9829C32.6932 25.648 33.1803 24.047 33.6761 22.7595C34.6905 22.7445 35.7371 22.7572 36.7534 22.7602C36.5408 23.4281 36.2032 24.2652 35.9554 24.9395L32.4869 34.2234C32.0588 35.3691 31.6457 36.5485 31.2095 37.6836L27.7871 37.6798C27.5789 37.2379 27.3264 36.4981 27.1509 36.0277L26.0226 33.0033L22.1823 22.7657Z" fill="#FDFDFD"/>
<path d="M27.6224 41.9495C28.0703 41.9317 28.8838 42.0233 29.3773 42.0656C30.207 42.1371 31.7655 41.5514 32.0689 42.5594C32.2495 43.1586 31.9548 43.5597 31.4057 43.744C30.557 43.846 27.9862 44.0157 27.2928 43.5965C27.1043 43.4827 26.9489 43.3038 26.8969 43.0863C26.8373 42.8371 26.8974 42.5522 27.0302 42.3359C27.1691 42.1091 27.3728 42.0118 27.6224 41.9495Z" fill="#FDFDFD"/>
<path d="M39.6547 36.7692C40.1079 36.7557 40.4617 36.955 40.6074 37.3998C40.6855 37.6329 40.6613 37.8881 40.5409 38.1025C40.1514 38.8042 38.2595 40.7794 37.488 41.0052C36.7278 41.0251 36.1072 40.2571 36.5762 39.6547C37.0689 39.0223 37.9349 38.5504 38.4453 37.8587C38.7372 37.4638 39.1751 36.8784 39.6547 36.7692Z" fill="#FDFDFD"/>
<path d="M29.4015 15.3676C29.9249 15.3273 31.4371 15.413 31.8554 15.739C32.2218 16.0247 32.1999 16.7216 31.8462 17.0584C31.7289 17.1705 31.5811 17.2454 31.4215 17.2737C31.1706 17.3159 30.0753 17.178 29.6884 17.1687C29.4384 17.163 29.1883 17.1719 28.9394 17.1952C28.2156 17.2602 27.1159 17.5728 26.906 16.5484C26.8398 16.2153 27.0381 15.7207 27.3876 15.6051C27.9629 15.4151 28.7891 15.4083 29.4015 15.3676Z" fill="#FDFDFD"/>
<path d="M19.1855 36.7368C19.5694 36.7483 19.9824 37.0419 20.1493 37.3556C20.5154 38.0444 22.3296 39.2786 22.4901 39.8571C22.5542 40.0953 22.5163 40.3494 22.3857 40.5586C22.2276 40.8078 21.9907 40.9123 21.7142 40.97C21.4816 40.9619 21.3225 40.9279 21.1232 40.7971C20.4758 40.3722 18.4845 38.4815 18.34 37.8157C18.2906 37.5979 18.3328 37.3695 18.457 37.1839C18.6355 36.9111 18.8777 36.7944 19.1855 36.7368Z" fill="#FDFDFD"/>
<path d="M37.2593 18.358C37.4249 18.341 37.5782 18.3534 37.7338 18.4156C38.3295 18.6539 40.4052 20.7313 40.6276 21.3129C40.7155 21.5424 40.727 21.8138 40.6204 22.0388C40.4902 22.313 40.2528 22.4397 39.9831 22.541C39.8282 22.5622 39.6518 22.5515 39.5067 22.4908C39.371 22.4344 39.2474 22.3524 39.1428 22.2493C38.4995 21.6155 37.9977 20.7397 37.1838 20.2244C36.3766 19.7131 36.2343 18.7248 37.2593 18.358Z" fill="#FDFDFD"/>
<path d="M21.479 18.3553C21.6635 18.3426 21.8096 18.3554 21.9798 18.4364C22.2092 18.5432 22.3836 18.741 22.4609 18.982C22.6416 19.5406 22.2904 19.8796 21.8876 20.1781C21.3708 20.5609 20.9043 21.0545 20.4735 21.5309C20.0624 21.9857 19.9664 22.3347 19.3478 22.5382C19.1664 22.5594 18.9827 22.529 18.8178 22.4505C18.608 22.3498 18.4467 22.1699 18.3695 21.9504C18.294 21.7317 18.3129 21.4101 18.4281 21.2271C18.8883 20.4956 20.7167 18.5913 21.479 18.3553Z" fill="#FDFDFD"/>
<path d="M16.6159 27.001C17.0263 26.9809 17.5407 27.2548 17.5683 27.6986C17.6067 28.3146 17.5013 28.9447 17.5074 29.5679C17.513 30.1411 17.5646 30.698 17.581 31.2696C17.5933 31.7994 17.3344 32.0102 16.8385 32.1543C16.6037 32.1523 16.3983 32.1304 16.1937 31.9993C15.967 31.8544 15.8747 31.6458 15.8208 31.3909C15.6755 30.7038 15.6018 27.8841 15.9738 27.3595C16.1265 27.1441 16.3651 27.0467 16.6159 27.001Z" fill="#FDFDFD"/>
<path d="M42.0646 27.0298C42.2812 27.0042 42.4728 26.9982 42.6776 27.0866C42.8793 27.1723 43.0352 27.3395 43.1066 27.5467C43.34 28.212 43.3391 30.9846 43.0516 31.7321C42.9669 31.9531 42.6981 32.0778 42.4748 32.1478C42.147 32.1752 41.818 32.1268 41.5884 31.8586C41.4976 31.7457 41.3859 31.5011 41.3965 31.3545C41.4642 30.4334 41.5593 29.5957 41.4515 28.6662C41.3657 27.9226 41.275 27.384 42.0646 27.0298Z" fill="#FDFDFD"/>
<defs>
<linearGradient id="paint0_linear_67_2085" x1="29.5117" y1="2.39551" x2="29.5117" y2="56.7497" gradientUnits="userSpaceOnUse">
<stop stop-color="#54B9F1"/>
<stop offset="1" stop-color="#00A4FF"/>
</linearGradient>
<linearGradient id="paint1_linear_67_2085" x1="39.6214" y1="3.19238" x2="39.6214" y2="9.31558" gradientUnits="userSpaceOnUse">
<stop stop-color="#54B9F1"/>
<stop offset="1" stop-color="#00A4FF"/>
</linearGradient>
<linearGradient id="paint2_linear_67_2085" x1="19.4848" y1="3.18311" x2="19.4848" y2="9.3209" gradientUnits="userSpaceOnUse">
<stop stop-color="#54B9F1"/>
<stop offset="1" stop-color="#00A4FF"/>
</linearGradient>
<linearGradient id="paint3_linear_67_2085" x1="39.3575" y1="50.0845" x2="39.3575" y2="56.0054" gradientUnits="userSpaceOnUse">
<stop stop-color="#54B9F1"/>
<stop offset="1" stop-color="#00A4FF"/>
</linearGradient>
<linearGradient id="paint4_linear_67_2085" x1="52.4551" y1="15.5068" x2="52.4551" y2="23.9389" gradientUnits="userSpaceOnUse">
<stop stop-color="#54B9F1"/>
<stop offset="1" stop-color="#00A4FF"/>
</linearGradient>
<linearGradient id="paint5_linear_67_2085" x1="19.6146" y1="50.0874" x2="19.6146" y2="55.9718" gradientUnits="userSpaceOnUse">
<stop stop-color="#54B9F1"/>
<stop offset="1" stop-color="#00A4FF"/>
</linearGradient>
<linearGradient id="paint6_linear_67_2085" x1="6.56535" y1="15.459" x2="6.56535" y2="23.9331" gradientUnits="userSpaceOnUse">
<stop stop-color="#54B9F1"/>
<stop offset="1" stop-color="#00A4FF"/>
</linearGradient>
<linearGradient id="paint7_linear_67_2085" x1="52.4212" y1="35.4741" x2="52.4212" y2="43.8992" gradientUnits="userSpaceOnUse">
<stop stop-color="#54B9F1"/>
<stop offset="1" stop-color="#00A4FF"/>
</linearGradient>
<linearGradient id="paint8_linear_67_2085" x1="6.58316" y1="35.4224" x2="6.58316" y2="43.8838" gradientUnits="userSpaceOnUse">
<stop stop-color="#54B9F1"/>
<stop offset="1" stop-color="#00A4FF"/>
</linearGradient>
<linearGradient id="paint9_linear_67_2085" x1="29.5115" y1="12.2964" x2="29.5115" y2="46.9799" gradientUnits="userSpaceOnUse">
<stop stop-color="#54B9F1"/>
<stop offset="1" stop-color="#00A4FF"/>
</linearGradient>
</defs>
</svg>
