<svg width="24" height="24" viewBox="0 0 24 24" fill="none" xmlns="http://www.w3.org/2000/svg">
<path d="M5.45495 0L4.60995 2.314C4.34795 3.034 3.91695 3.486 3.33295 3.658L1.41895 4.223L2.23095 6.066C2.60695 6.917 2.79795 7.804 2.79795 8.706C2.79795 11.196 1.52595 11.766 1.52595 14.533C1.52595 18.521 4.60895 21.13 7.47395 21.867C8.92195 22.22 9.35995 22.242 10.6669 22.564L11.9999 24L13.3339 22.564C14.6419 22.242 15.0779 22.22 16.5249 21.867C19.3899 21.13 22.4749 18.521 22.4749 14.533C22.4749 11.766 21.2029 11.197 21.2029 8.705C21.2029 7.805 21.3939 6.917 21.7699 6.066L22.5819 4.223L20.6679 3.658C20.0829 3.486 19.6539 3.034 19.3909 2.314L18.5449 0L16.6579 1.563C16.1579 1.977 15.6519 2.186 15.1519 2.186C14.4839 2.186 13.7229 1.86 13.2149 1.357L11.9999 0.157L10.7849 1.357C10.2769 1.86 9.51594 2.186 8.84794 2.186C8.34794 2.186 7.84195 1.976 7.34195 1.563L5.45495 0ZM5.59494 0.523L7.14094 1.803C7.64894 2.223 8.23094 2.5 8.84794 2.5C9.67494 2.5 10.4939 2.086 11.0059 1.58L11.9999 0.596L12.9959 1.58C13.5079 2.086 14.3259 2.5 15.1519 2.5C15.7689 2.5 16.3509 2.224 16.8589 1.803L18.4039 0.523L19.0979 2.422C19.3959 3.239 19.8939 3.757 20.5779 3.959L22.1499 4.422L21.4819 5.939C21.0961 6.8103 20.8948 7.75208 20.8909 8.705C20.8909 11.296 22.1619 11.813 22.1619 14.533C22.1619 18.176 19.4509 20.79 16.4489 21.563C14.9649 21.938 14.2719 21.976 13.1659 22.285C13.0219 22.436 11.9999 23.54 11.9999 23.54C11.9999 23.54 10.9779 22.437 10.8339 22.286C9.72795 21.976 9.03695 21.939 7.55295 21.563C4.54995 20.791 1.83795 18.177 1.83795 14.534C1.83795 11.814 3.10895 11.297 3.10895 8.706C3.10506 7.75308 2.90383 6.8113 2.51795 5.94L1.84995 4.422L3.42195 3.959C4.10695 3.757 4.60494 3.239 4.90394 2.422L5.59595 0.523H5.59494ZM11.9999 1.607C11.9999 1.607 10.7499 3.223 8.84794 3.223C7.37294 3.223 5.91795 1.725 5.91795 1.725C5.25995 4.674 2.83395 4.885 2.83395 4.885C2.83395 4.885 3.82195 6.631 3.82195 8.699C3.82195 11.353 2.55195 12.105 2.55195 14.533C2.55195 17.208 4.38495 20.015 7.72995 20.861C9.31995 21.263 10.4169 21.365 11.2249 21.656C11.3279 21.753 11.9999 22.482 11.9999 22.482C11.9999 22.482 12.6719 21.753 12.7749 21.656C13.5829 21.365 14.6799 21.263 16.2699 20.861C19.6139 20.015 21.4469 17.208 21.4469 14.533C21.4469 12.105 20.1799 11.353 20.1799 8.699C20.1799 6.631 21.1659 4.885 21.1659 4.885C21.1659 4.885 18.7399 4.674 18.0819 1.725C18.0819 1.725 16.6269 3.223 15.1519 3.223C13.2509 3.223 11.9999 1.607 11.9999 1.607ZM11.9999 2.617C11.9999 2.617 13.2579 3.947 15.1519 3.947C16.6639 3.947 17.7599 2.926 17.7599 2.926C18.5289 5.016 20.1799 5.348 20.1799 5.348C20.1799 5.348 19.4649 6.807 19.4649 8.699C19.4649 11.508 20.7349 12.322 20.7349 14.533C20.7349 17.624 18.3249 19.591 16.0919 20.158C14.3229 20.608 13.1669 20.658 12.3909 21.033C12.3909 21.033 12.1069 21.291 11.9999 21.41C11.8929 21.291 11.6109 21.033 11.6109 21.033C10.8349 20.658 9.67694 20.607 7.90795 20.158C5.67494 19.591 3.26595 17.624 3.26595 14.533C3.26595 12.322 4.53594 11.508 4.53594 8.699C4.53594 6.807 3.81995 5.348 3.81995 5.348C3.81995 5.348 5.47094 5.015 6.23994 2.926C6.23994 2.926 7.33594 3.947 8.84794 3.947C10.7419 3.947 11.9999 2.617 11.9999 2.617ZM11.9999 3.677C11.3679 4.142 10.2629 4.757 8.84794 4.757C7.91394 4.757 7.11895 4.442 6.55795 4.129C6.15147 4.82449 5.56576 5.39812 4.86195 5.79C5.08595 6.46 5.34695 7.498 5.34695 8.698C5.34695 11.011 4.55695 12.094 4.22395 13.403L15.8059 4.706C15.5966 4.73933 15.3789 4.756 15.1529 4.756C13.7389 4.756 12.6329 4.141 12.0009 3.676L11.9999 3.677ZM17.6739 4.482L4.07995 14.69C4.14495 16.698 5.44195 18.162 6.92394 18.923L18.7519 10.04C18.6859 9.5964 18.6532 9.14848 18.6539 8.7C18.6539 7.5 18.9139 6.463 19.1389 5.792C18.5582 5.47166 18.0574 5.02317 17.6739 4.482ZM16.0079 6.635V10.033L17.8079 8.682C17.8079 8.682 17.7479 9.115 17.8079 9.846L14.9859 11.966V8.304C14.9859 7.786 14.4919 7.772 14.4919 7.772L16.0079 6.635ZM14.1369 8.039V12.604L13.1619 13.334V11.666L12.0409 12.508V14.178L11.0179 14.945V11.283C11.0179 10.765 10.5229 10.752 10.5229 10.752L12.0409 9.613V11.3L13.1619 10.458V8.77L14.1369 8.039ZM18.9749 11.051L7.94895 19.33L8.10695 19.372C9.50795 19.729 11.2229 19.912 11.7399 20.208C11.8569 20.293 11.9999 20.444 11.9999 20.444C11.9999 20.444 12.1429 20.294 12.2599 20.208C12.7769 19.912 14.4919 19.728 15.8929 19.372C17.8339 18.879 19.9229 17.156 19.9229 14.532C19.9229 13.225 19.3499 12.365 18.9749 11.051ZM10.1229 11.053V15.617L9.06994 16.408L7.93694 14.67V17.26L6.94095 18.006V14.344C6.94095 13.826 6.44695 13.813 6.44695 13.813L7.85695 12.753L9.12995 14.7V11.802L10.1239 11.054L10.1229 11.053ZM20.4689 20.852C20.2519 20.852 20.0437 20.9382 19.8902 21.0917C19.7367 21.2452 19.6504 21.4534 19.6504 21.6705C19.6504 21.8876 19.7367 22.0958 19.8902 22.2493C20.0437 22.4028 20.2519 22.489 20.4689 22.489C20.686 22.489 20.8942 22.4028 21.0477 22.2493C21.2012 22.0958 21.2874 21.8876 21.2874 21.6705C21.2874 21.4534 21.2012 21.2452 21.0477 21.0917C20.8942 20.9382 20.686 20.852 20.4689 20.852ZM20.4689 21.027C20.5555 21.0236 20.6418 21.0377 20.7227 21.0684C20.8036 21.0992 20.8775 21.146 20.9399 21.206C21.0023 21.266 21.052 21.3379 21.0859 21.4176C21.1198 21.4972 21.1373 21.5829 21.1373 21.6695C21.1373 21.7561 21.1198 21.8418 21.0859 21.9214C21.052 22.0011 21.0023 22.073 20.9399 22.133C20.8775 22.193 20.8036 22.2398 20.7227 22.2706C20.6418 22.3013 20.5555 22.3154 20.4689 22.312C20.3029 22.3054 20.1459 22.2349 20.0308 22.1151C19.9156 21.9953 19.8513 21.8356 19.8513 21.6695C19.8513 21.5034 19.9156 21.3437 20.0308 21.2239C20.1459 21.1041 20.3029 21.0336 20.4689 21.027ZM20.1329 21.203V22.137H20.3089V21.757H20.4339L20.6109 22.137H20.8049L20.6209 21.742C20.6747 21.7224 20.7212 21.6867 20.7541 21.6399C20.787 21.593 20.8047 21.5372 20.8049 21.48C20.8049 21.4435 20.7977 21.4074 20.7838 21.3738C20.7698 21.3401 20.7493 21.3095 20.7235 21.2838C20.6976 21.258 20.667 21.2377 20.6333 21.2238C20.5995 21.2099 20.5634 21.2029 20.5269 21.203H20.1329ZM20.3089 21.379H20.5269C20.5539 21.379 20.5797 21.3897 20.5987 21.4087C20.6178 21.4278 20.6284 21.4536 20.6284 21.4805C20.6284 21.5074 20.6178 21.5332 20.5987 21.5523C20.5797 21.5713 20.5539 21.582 20.5269 21.582H20.3089V21.379Z" fill="#69C2F1"/>
</svg>
