<svg width="32" height="29" viewBox="0 0 32 29" fill="none" xmlns="http://www.w3.org/2000/svg">
<g clip-path="url(#clip0_25_592)">
<path d="M20.7475 15.3823C21.3086 15.3376 22.3393 15.6503 22.9406 15.7726C24.7722 16.1539 26.6199 16.4336 28.4619 16.754C29.2188 16.8856 29.4518 17.5758 29.363 18.2398C29.2276 19.2522 29.0196 20.2113 28.8239 21.2086L28.3794 23.5874C28.1367 24.9476 27.9611 26.3194 27.6416 27.6719C27.5715 27.9683 27.3414 28.2665 27.1629 28.5048C27.0443 28.5508 26.9033 28.5945 26.781 28.6356C25.9699 28.6735 25.1684 28.4138 24.3776 28.2719C23.5696 28.1269 22.7683 27.9835 21.9638 27.8142C20.9355 27.5931 19.7711 27.6113 18.7875 27.2627C18.1281 26.9615 17.9795 26.5211 18.1031 25.853C18.2631 24.9886 18.3972 24.136 18.6223 23.2832C18.8391 22.5722 18.815 21.7456 18.9806 21.0337C19.2546 19.856 19.4158 18.6779 19.6577 17.496C19.7605 16.9937 19.7813 16.4287 19.9741 15.9559C20.115 15.6105 20.411 15.4835 20.7475 15.3823ZM26.5015 27.6455C26.6332 27.5714 26.693 27.5443 26.7289 27.3919C27.2299 25.26 27.5034 23.074 27.929 20.9248C28.1214 20 28.2697 19.0583 28.4113 18.1255C28.4668 17.7597 28.1126 17.6016 27.809 17.5502C26.4147 17.3143 25.0289 17.0353 23.6371 16.786C22.7755 16.6316 21.7732 16.3541 20.8977 16.3521C20.482 16.7007 20.517 18.1512 20.3865 18.6877C20.0925 19.8957 19.937 21.1148 19.7191 22.3311L19.2352 24.8893C19.1771 25.1927 18.9122 26.1372 19.084 26.3795C19.4344 26.5342 20.5506 26.683 20.9556 26.7641C21.7402 26.9213 25.8635 27.7856 26.5015 27.6455Z" fill="#69C2F1"/>
<path d="M23.7387 20.4192C24.7178 20.4019 25.5236 21.1692 25.5329 22.1276C25.5421 23.086 24.7513 23.8681 23.7721 23.8689C22.8046 23.8698 22.0173 23.1071 22.0081 22.1602C21.999 21.2133 22.7714 20.4363 23.7387 20.4192Z" fill="#69C2F1"/>
<path d="M21.6824 17.1035C21.9671 17.172 22.1981 17.4058 22.262 17.6858C22.3096 17.8919 22.2683 18.108 22.1478 18.2833C22.0216 18.466 21.8608 18.5563 21.6454 18.5979C21.2101 18.5656 20.8576 18.4738 20.9942 17.9193C21.0857 17.5478 21.3495 17.2928 21.6824 17.1035Z" fill="#69C2F1"/>
<path d="M14.7389 4.33022C14.6277 3.94817 14.5563 3.56935 14.4942 3.17141C14.4595 2.94847 14.391 2.60588 14.5196 2.38399C14.6351 2.18465 14.9673 2.12202 15.13 2.30979C15.1973 2.38743 15.2583 2.53686 15.2699 2.64794C15.3196 3.12178 15.33 3.60596 15.35 4.08317C15.2596 4.1203 15.0833 4.1768 15.038 4.24863C15.1081 4.26796 16.2155 4.25283 16.3741 4.24305C16.7542 4.21962 17.247 4.35576 17.562 4.33709L17.5839 4.31807L17.5591 4.29638C17.4874 4.23291 17.4134 4.17083 17.4194 4.07307C17.445 3.65392 17.6455 2.77589 17.8047 2.40148C18.2825 2.41821 18.4101 2.41533 18.4785 2.93019C18.5279 3.30175 17.9583 4.32689 17.9685 4.43988C18.1433 4.54323 18.8175 4.64911 19.0844 4.74971C20.165 5.15685 21.3754 5.87691 22.2011 6.66724C22.3358 6.26028 22.8223 5.78738 23.1295 5.49694C23.7797 4.88231 24.2498 5.72852 23.4166 6.19882C23.1154 6.3689 22.9737 6.71604 22.4774 6.91454C22.9166 7.30162 23.1403 7.73725 23.4785 8.20554C23.5831 8.35039 23.7112 8.58737 23.8449 8.69204C23.9249 8.59792 24.0152 8.46532 24.119 8.4022C24.4253 8.21588 25.2536 7.55971 25.5935 7.70421C25.725 7.83164 25.9615 8.12756 25.7644 8.28469C25.3696 8.59952 24.8947 8.82464 24.4666 9.09574C24.3422 9.17507 24.2386 9.04952 24.0869 9.13794C24.1144 9.32378 24.5855 10.2931 24.644 10.5805C24.6598 10.6579 24.7532 11.007 24.8047 11.0513C24.8441 11.0187 25.0416 10.8558 25.0785 10.8473C25.5609 10.7357 26.0767 10.6044 26.572 10.5884C26.8079 10.5808 26.9109 10.9067 26.9633 11.0848C26.9318 11.1688 26.9013 11.2246 26.8042 11.2582C26.4408 11.3842 25.1932 11.5265 24.845 11.5019C24.9613 12.1838 24.9527 12.7639 24.9503 13.4491C25.2834 13.3917 26.7342 13.3571 26.9951 13.478C27.4452 14.3068 26.7143 14.3728 26.0868 14.2317C25.8935 14.1882 25.4113 14.1934 25.2656 14.1373C24.499 13.8149 24.9582 15.1845 24.3985 15.3809C24.2657 15.4275 23.6045 15.4671 23.592 15.3146C23.548 14.7789 23.765 14.0996 23.8066 13.5423C24.0437 10.6122 22.5534 7.80613 19.967 6.31251C16.5413 4.33629 12.459 5.26148 9.79335 7.93846C9.5248 8.24458 9.32209 8.62853 9.11049 8.96769C8.19457 10.4358 7.87252 11.8767 7.95077 13.5759C8.07419 16.2558 9.51959 18.647 11.9236 19.9712C13.369 20.7673 14.7305 21.1281 16.4009 21.0353C16.8598 21.0192 17.4348 20.927 17.8589 21.0086C17.9526 21.1108 18.0539 21.2172 18.1403 21.3244C18.2817 21.7563 18.0658 21.8708 17.7707 22.1569C17.8601 22.5189 18.0648 23.6939 17.7791 23.958C17.2773 24.0256 17.3663 22.3995 17.4705 22.1113C17.0182 22.0911 15.5177 22.1333 15.0867 22.1901C15.1765 22.2448 15.2133 22.2729 15.2925 22.3376C15.4053 22.6601 15.2575 23.7379 15.1603 24.0946C15.104 24.4058 14.3902 24.1753 14.4228 23.9518C14.5049 23.3887 14.599 22.5446 14.9346 22.0942C14.2002 21.9755 13.4516 21.8151 12.7487 21.5754C12.7637 21.6192 12.8145 21.7684 12.8066 21.8079C12.7057 22.3131 12.4986 22.8671 12.2368 23.3127C12.0096 23.7081 11.3957 23.4094 11.5262 22.9996C11.6911 22.4818 11.9518 21.7766 12.4236 21.4792L12.4207 21.448C12.0307 21.2503 11.6473 21.0403 11.2711 20.8183C11.0705 20.7003 10.7098 20.4672 10.5072 20.3891C10.4321 20.5257 10.3829 20.733 10.3131 20.8403C10.0887 21.1849 9.39226 22.6098 8.91824 21.7526C8.79166 21.5238 9.61025 20.6164 9.79349 20.4499C9.95776 20.3006 10.1725 20.2876 10.3795 20.2659C9.59071 19.6988 9.32404 19.2555 8.67675 18.7039C8.63413 18.759 8.58867 18.812 8.54052 18.8626C8.40142 19.0081 7.38119 19.7582 7.13931 19.8507C7.01783 19.8972 6.70443 19.5467 6.5871 19.4263C6.97436 19.1062 7.49249 18.7257 7.93407 18.4696C7.97435 18.4462 8.34001 18.3663 8.42288 18.3461C8.42316 18.3534 7.4809 16.6446 7.38215 16.3859C7.05432 16.7237 6.07766 17.343 5.57361 17.3187C5.30006 17.3054 5.25843 16.622 5.59375 16.5127C5.74486 16.4634 5.98345 16.3719 6.15517 16.3402C6.63263 16.2025 6.81637 16.0817 7.30351 16.2237C7.0663 15.4575 6.95004 14.8894 6.81459 14.1051C6.81233 13.9366 6.80967 13.8519 6.78219 13.6867C6.82208 13.351 6.81073 13.0252 6.83137 12.6904C6.85207 12.3549 6.89217 12.0048 6.9293 11.6699C6.50286 11.7877 4.99208 11.6982 4.84912 11.2245C4.85575 10.8874 5.2684 10.7828 5.55038 10.8006C6.10932 10.8357 6.59125 10.9768 6.98776 11.385C7.15778 10.8182 7.42544 9.78957 7.62283 9.28012C8.03725 8.21067 9.30869 6.83729 10.2005 6.1079C9.69166 5.88236 9.16591 5.05573 8.98611 4.57228L8.97628 4.5451C9.07968 4.3947 9.28011 4.08428 9.50672 4.26671C9.80689 4.50835 10.5542 5.49073 10.4121 5.87316C10.3635 5.92123 10.3105 5.96429 10.2868 6.02669C10.8468 5.79518 11.6816 5.23035 12.352 4.92732C12.0379 4.56103 11.2519 3.51782 11.5986 3.03808C11.7163 2.95455 11.8731 2.92304 12.0147 2.88445C12.428 3.28451 12.8167 4.20897 12.6601 4.75329C12.7602 4.8102 13.243 4.58973 13.3865 4.55683C13.8341 4.45439 14.2854 4.39897 14.7389 4.33022Z" fill="#69C2F1"/>
<path d="M15.3277 0.228788C15.5821 0.208715 16.1447 0.226237 16.4012 0.240483C20.0784 0.416605 23.5284 2.03402 25.9734 4.72811C28.2435 7.23528 29.38 10.8497 29.174 14.1768C29.1053 14.7819 29.089 15.6157 28.6773 16.1063C28.5352 16.2756 28.0574 16.0245 27.9536 15.8681C27.6537 15.4167 28.0104 14.7133 28.063 14.2288C28.2963 12.08 27.7283 9.96698 26.889 7.99917C26.7609 7.70072 25.8884 6.32047 25.683 6.05544C23.7266 3.48458 20.8847 1.8368 17.6407 1.41387C15.8536 1.18088 13.975 1.29248 12.2607 1.85041C11.9335 1.95691 11.5093 2.02066 11.1974 2.15552C9.52392 2.87908 8.05399 3.90807 6.79645 5.20757C6.59445 5.41825 6.43795 5.67242 6.25275 5.89462C4.81204 7.6235 4.08518 9.56106 3.77571 11.7435C3.3631 14.0232 4.0332 17.0957 5.18295 19.0908C7.00901 22.2555 10.2793 24.5066 13.9542 25.0609C14.8897 25.202 16.0024 25.142 16.9021 25.3395C17.2069 25.4064 17.0757 26.3528 16.6188 26.3302C15.5461 26.2774 14.4478 26.1471 13.3842 25.9948C8.97126 25.187 5.31602 22.1426 3.54755 18.1358C3.1766 17.2953 2.69269 15.3572 2.63408 14.4564C2.50693 12.8567 2.66843 11.554 3.05002 10.0218C3.62481 7.71394 4.54746 6.2252 6.16741 4.44562C7.85469 2.59208 10.2116 1.22797 12.6777 0.612436C13.3343 0.448567 14.6356 0.271421 15.3277 0.228788Z" fill="#69C2F1"/>
<path d="M11.2024 13.1478C11.4453 13.0843 11.7793 12.9266 12.0521 12.808C12.5127 12.6077 13.4575 12.4534 13.8698 12.2459C14.1591 12.1003 14.7643 11.3464 15.0267 11.1153C15.329 10.633 15.4138 9.19486 15.95 8.92383C16.4885 8.95142 16.7938 10.7852 16.9422 11.223C17.4007 11.5884 17.5753 11.7671 17.933 12.2133C19.0413 12.4623 19.5271 12.6802 20.4945 13.2257C20.1626 13.3343 19.9052 13.5747 19.6684 13.6498C19.1034 13.8289 18.6292 13.8934 18.055 14.0933C17.8217 14.3946 17.6484 14.6348 17.3691 14.9033C17.2279 15.0391 16.9959 15.2111 16.8769 15.335C16.8026 15.7341 16.4387 17.4567 15.9505 17.4837C15.6009 17.3893 15.2567 16.3229 15.2358 16.0212C15.1784 15.1952 14.7721 15.0947 14.242 14.5329C14.095 14.3772 13.9449 14.1844 13.7914 14.0163C13.5085 13.9199 13.2375 13.8584 12.9478 13.7891L12.9625 13.7294C12.7036 13.644 11.3277 13.2445 11.2024 13.1478ZM16.1948 14.3873C17.7558 14.1274 17.5571 11.9163 15.811 12.0235C14.2223 12.1616 14.1831 14.5555 16.1948 14.3873Z" fill="#69C2F1"/>
<path d="M15.9212 18.2061L16.0348 18.246C16.4625 18.723 16.6223 19.2994 16.3562 19.9001C16.201 20.0118 16.1451 20.0351 15.9665 20.1108C14.8743 19.9093 15.5271 18.7614 15.9212 18.2061ZM16.0027 19.8379C16.138 19.5688 16.281 18.7133 15.9292 18.5605C15.7807 18.8302 15.6876 19.7008 16.0027 19.8379Z" fill="#69C2F1"/>
<path d="M21.1244 4.49323C20.9613 4.756 20.6434 5.30779 20.2717 5.27579C19.778 5.04123 20.5792 3.57012 20.9077 3.33789C21.4941 3.63689 21.6773 3.6657 21.295 4.26894L21.1244 4.49323Z" fill="#69C2F1"/>
<path d="M5.85447 8.16958C6.14426 8.089 6.2957 8.16649 6.58439 8.25429C6.85631 8.38957 7.52817 8.68617 7.57072 8.91723C7.72344 9.74636 6.27701 9.10872 6.02772 8.92761C5.61301 8.62631 5.58387 8.50981 5.85447 8.16958Z" fill="#69C2F1"/>
<path d="M6.6353 14.2514C6.37494 14.2902 5.0584 14.4919 4.86282 14.3135C4.45758 13.9437 4.98943 13.6442 5.41328 13.6291C5.78079 13.6161 6.29222 13.4673 6.63927 13.7226L6.70199 13.8431C6.65973 13.9448 6.64782 14.135 6.6353 14.2514Z" fill="#69C2F1"/>
<path d="M7.16537 6.17871C7.61649 6.21154 8.52649 6.88541 8.71625 7.31396C8.75405 7.39933 8.66289 7.51357 8.62034 7.58517C8.2027 7.6518 6.77733 6.79355 7.16537 6.17871Z" fill="#69C2F1"/>
<path d="M21.3345 12.6477C21.7225 12.6222 22.4314 12.684 22.6728 13.0216C22.7253 13.3728 21.869 13.5991 21.5852 13.6392L21.1549 13.6204C21.0277 13.4955 20.9073 13.3646 20.7856 13.2346C21.1163 13.2636 21.5214 13.3163 21.824 13.1765L21.8359 13.1227C21.642 12.9531 21.2456 12.9349 21.1143 12.7627C21.1788 12.6708 21.1988 12.6904 21.3345 12.6477Z" fill="#69C2F1"/>
<path d="M9.10327 13.1808C9.41526 12.9864 10.2757 12.4321 10.6135 12.7615C10.6547 12.8799 10.6187 12.9663 10.5867 13.0883L10.5643 13.1544C10.6268 13.2552 10.6212 13.2133 10.597 13.3121C10.569 13.3304 10.5232 13.3786 10.4972 13.404C10.493 13.45 10.4841 13.5772 10.4578 13.5997C10.2331 13.7919 9.25698 13.2897 9.10327 13.1808Z" fill="#69C2F1"/>
<path d="M15.9438 6.25977C16.1941 6.31519 16.6164 7.53612 16.4371 7.76804C16.2509 7.74205 16.2679 7.46206 15.9751 7.55392C15.8972 7.70422 15.8504 7.94891 15.6804 8.01641L15.6298 7.97751C15.5024 7.52435 15.713 6.69515 15.9438 6.25977Z" fill="#69C2F1"/>
<path d="M10.5961 13.3127C10.6203 13.2138 10.6259 13.2558 10.5635 13.1549L10.5859 13.0889C10.7702 13.1832 10.9936 13.1572 11.2011 13.1486C11.3264 13.2453 12.7023 13.6448 12.9612 13.7302L12.9465 13.7899C11.8739 13.5358 11.7231 13.2315 10.5961 13.3127Z" fill="#69C2F1"/>
<path d="M6.63892 13.7232C6.66863 13.6806 6.67615 13.679 6.71529 13.6455L6.7834 13.6866C6.81088 13.8519 6.81354 13.9366 6.81581 14.105L6.77748 14.1337L6.73894 14.1219C6.73093 14.0132 6.72114 13.9496 6.70164 13.8437L6.63892 13.7232Z" fill="#69C2F1"/>
</g>
<defs>
<clipPath id="clip0_25_592">
<rect width="32" height="29" fill="white"/>
</clipPath>
</defs>
</svg>
