<svg width="32" height="32" viewBox="0 0 32 32" fill="none" xmlns="http://www.w3.org/2000/svg">
<g clip-path="url(#clip0_25_624)">
<path d="M8.35857 4.78502C8.5196 4.47375 8.75027 4.19732 8.95511 3.93261C11.1953 1.03791 15.1553 0.354968 18.172 2.23272C18.9146 2.69489 19.6075 3.4466 20.1591 4.15397C20.327 4.37036 20.5944 4.78547 20.768 4.93749C22.4156 4.95139 26.4903 4.68976 26.6746 7.48698C26.6932 7.76955 26.5354 8.27731 26.4328 8.54585C26.8775 8.80932 27.449 9.49866 27.5562 10.0207C27.6387 10.4223 27.6098 11.5138 27.6095 11.9664L27.6123 14.9114L27.6451 19.7122C27.6501 20.6412 27.6672 21.5817 27.6217 22.5101C27.6095 22.7601 27.5409 22.9647 27.4218 23.1781C27.2986 23.3989 27.0571 23.762 26.8878 23.9345C27.575 24.1642 28.2411 24.8967 28.2139 25.6681C28.1828 26.5391 28.3585 28.8468 28.1401 29.5678C28.0945 29.7165 27.9938 29.8384 27.8619 29.9051C27.8249 29.924 27.7906 29.9318 27.7506 29.9379C27.7193 29.9252 25.2314 29.9481 24.9065 29.9464L4.47038 29.9368C3.51164 29.9392 2.54699 29.9267 1.59011 29.9821C1.41419 29.9923 0.873986 29.8472 0.770884 29.8805C0.681923 29.8402 0.6261 29.771 0.587073 29.6779C0.430639 29.3049 0.448891 26.2836 0.48931 25.7385C0.506008 25.5132 0.542738 25.2617 0.621246 25.0512C0.804378 24.5602 1.27047 24.1552 1.71049 23.9594C0.740141 23.1229 0.905894 21.8183 0.904729 20.6361L0.9046 17.1261L0.906153 12.7387C0.906445 11.9223 0.876284 10.9884 0.946928 10.1848C1.03249 9.21115 1.70059 8.90899 2.27241 8.41832C2.35153 8.07519 2.10688 7.66266 2.13497 7.36126C2.27073 5.905 3.94496 5.29066 5.0842 5.04515C5.56603 4.94135 6.18982 4.94496 6.69698 4.95538C6.87063 4.9599 7.04432 4.96254 7.21803 4.96323C7.54326 4.96497 8.13987 5.01757 8.35857 4.78502ZM26.6935 18.6537C26.7128 18.3398 26.6987 17.8306 26.6991 17.5019C26.7053 16.8599 26.7009 16.2177 26.6859 15.5758C26.7747 14.0027 26.638 12.2926 26.6916 10.7147C26.7201 9.87778 26.1381 9.20299 25.3629 9.19225C24.7436 9.16651 24.1199 9.17485 23.4966 9.17579L20.1756 9.18875C17.3749 9.17224 14.5742 9.17297 11.7736 9.19093L6.06785 9.19232C5.07715 9.19312 4.03955 9.17634 3.05183 9.2345C2.78779 9.25006 2.30661 9.4651 2.11487 9.64978C1.86009 9.89518 1.82362 10.4929 1.82498 10.8478C1.83479 13.4289 1.83404 16.0156 1.83767 18.5965L1.84793 21.2046C1.84971 21.9268 1.70958 22.6047 2.22176 23.1792C2.77291 23.7974 3.37019 23.7731 4.10486 23.784C11.3191 23.8145 18.5335 23.7956 25.7475 23.7274C26.0081 23.5369 26.6978 22.8013 26.695 22.4845C26.6841 21.2591 26.7583 19.8651 26.6935 18.6537ZM20.0882 24.6727C19.9985 24.7086 19.3495 24.6696 19.2074 24.6635L19.187 24.6444C18.3385 24.5376 16.9634 24.6079 16.0664 24.5945C14.3583 24.6175 12.2285 24.5332 10.5579 24.628C9.85579 24.6679 4.41497 24.5621 4.24695 24.665C2.70058 24.7317 1.06178 24.2455 1.28979 26.6476C1.30148 26.7706 1.29611 27.0944 1.29109 27.2287C1.26805 27.844 1.32792 28.4813 1.31827 29.0921C1.63891 29.094 1.95562 29.0935 2.27603 29.1128C3.92846 29.0721 5.67893 29.112 7.33974 29.1101C8.25443 29.1091 9.65783 29.0557 10.5368 29.1107C10.7785 29.0758 11.771 29.1025 12.0809 29.1047C13.0658 29.1127 14.0506 29.1127 15.0355 29.1046L27.3817 29.0741C27.3312 28.2034 27.5272 25.9883 27.2922 25.3468C27.1646 24.9987 26.8974 24.8796 26.6011 24.7382L26.5918 24.696C26.502 24.606 26.1241 24.5923 25.9953 24.5931C24.0571 24.605 22.1151 24.5668 20.1781 24.6082C20.1781 24.6082 20.0961 24.6671 20.0882 24.6727ZM14.2594 2.13293C12.2793 2.31131 10.6345 3.16363 9.33814 4.80496C8.99026 5.24546 8.94294 5.77896 8.34899 5.83833C8.05858 5.86734 7.75542 5.84816 7.46372 5.84698C6.17497 5.84177 4.66943 5.74318 3.57892 6.61598C3.43812 6.72868 3.27007 6.84787 3.15768 6.99381C3.03374 7.15476 3.00869 7.34142 3.03008 7.54427C3.04856 7.71967 3.11804 8.10024 3.24632 8.21593C3.47045 8.41808 13.4521 8.3199 14.6144 8.31636L20.6091 8.33203C21.776 8.34495 22.943 8.34141 24.1098 8.32147C24.5633 8.3141 25.1771 8.32147 25.6159 8.29037C25.7214 7.90163 25.9719 7.34555 25.7215 6.98179C24.8061 5.65212 22.7066 5.93282 21.3398 5.85553C21.0104 5.83691 20.6918 5.90986 20.3742 5.78362C20.0126 5.6458 19.8343 5.00145 19.5531 4.73138C18.4639 3.37069 17.342 2.51662 15.6627 2.2312C15.1926 2.15131 14.7474 2.06662 14.2594 2.13293Z" fill="#69C2F1"/>
<path d="M3.37902 10.4694C3.687 10.4248 4.87449 10.489 5.27127 10.4879C6.2689 10.4794 7.26656 10.4767 8.26422 10.4797C8.80446 10.4794 9.38431 10.4663 9.91982 10.5054C9.96995 10.5091 10.4008 10.6828 10.5317 10.7205C11.214 10.4178 11.6461 10.4928 12.3608 10.4917L14.5189 10.4903L16.3304 10.4863C17.0818 10.4852 17.3593 10.4025 17.991 10.8514C18.0487 10.8594 18.1837 10.675 18.2268 10.6477C18.62 10.3995 19.6057 10.4832 20.0479 10.483L22.7909 10.4887C23.2868 10.493 23.7827 10.4934 24.2786 10.4896C24.6057 10.4841 24.9799 10.4498 25.3016 10.4802C25.788 10.526 25.8382 10.8589 25.8554 11.2791C25.8846 11.9901 25.8655 12.6824 25.859 13.3879C25.8503 14.3381 25.851 15.2884 25.8612 16.2385C25.8795 17.5392 25.8873 18.84 25.8846 20.1409C25.8868 20.733 25.9084 21.3852 25.8726 21.9761C25.8619 22.1518 25.6694 22.2885 25.543 22.3895C25.4123 22.4126 25.2624 22.4197 25.1289 22.4296L20.9486 22.4202C20.1846 22.4224 19.284 22.4592 18.5251 22.3623C18.3636 22.3416 18.176 22.1651 18.0473 22.0527C17.5536 22.3002 17.6697 22.4311 17.0549 22.4196C16.4224 22.4077 15.7722 22.4354 15.1383 22.42C13.7663 22.3866 12.3655 22.4945 10.9972 22.3846C10.8322 22.2214 10.7802 22.1922 10.5854 22.0815C10.3951 22.1671 10.1305 22.3851 9.94904 22.4065C9.69287 22.4367 9.36402 22.4246 9.10102 22.4239L7.58642 22.4213L5.12328 22.42C4.73644 22.4231 3.01984 22.5151 2.8027 22.2699C2.76762 22.0502 2.73192 21.8019 2.72914 21.5794C2.71286 20.2773 2.74176 18.9751 2.73733 17.6727L2.74442 13.7466C2.7462 13.0462 2.70031 11.4274 2.83597 10.6773C2.85846 10.553 3.23372 10.4867 3.37902 10.4694ZM10.9006 11.1923C10.984 13.802 10.8422 16.4453 10.8895 19.0589C10.9051 19.9249 10.9248 20.81 10.9242 21.6741C11.4894 21.576 13.1971 21.5971 13.8312 21.6097C15.0585 21.634 16.4656 21.5755 17.6706 21.652C17.6376 21.4263 17.6548 20.9354 17.6568 20.6899C17.6621 20.154 17.6641 19.6182 17.6625 19.0823L17.6552 13.8688C17.656 13.0118 17.692 12.026 17.659 11.1846C17.4163 11.2047 16.9455 11.2036 16.7058 11.1912C16.1792 11.126 14.7551 11.1585 14.1722 11.1711C13.5431 11.1845 12.5655 11.122 11.9794 11.1541C11.89 11.1597 11.8021 11.1821 11.7199 11.2203C11.4681 11.2385 11.1573 11.2092 10.9006 11.1923ZM19.667 11.2245C19.2144 11.2342 18.7886 11.2397 18.3363 11.1906C18.3856 13.369 18.338 15.5314 18.3461 17.7042C18.3535 18.6273 18.3546 19.5503 18.3491 20.4734C18.348 20.7748 18.3688 21.3755 18.3431 21.6443C20.4219 21.5622 22.5139 21.6491 24.5942 21.6085C24.7723 21.605 24.9545 21.5975 25.1321 21.5999C25.0811 21.1131 25.1057 20.2119 25.1068 19.6928L25.1119 16.3086L25.1068 13.0175C25.1062 12.5702 25.0881 11.5921 25.1385 11.1751C24.8541 11.2109 24.5072 11.2578 24.2214 11.2213C24.2179 11.2164 24.2152 11.2108 24.2109 11.2067C24.0989 11.099 20.0749 11.176 19.667 11.2245ZM9.40706 11.2046C7.44354 11.2584 5.37476 11.2069 3.39931 11.22C3.42597 11.9004 3.39769 12.7827 3.39957 13.4804L3.41096 18.4162L3.42756 20.5333C3.43118 20.8406 3.46325 21.3678 3.42497 21.6489C3.63707 21.6376 3.95689 21.6109 4.1609 21.6187C5.33156 21.6279 6.50226 21.63 7.67295 21.6252C8.32946 21.6207 9.55055 21.5723 10.1501 21.6766C10.1045 20.9767 10.1321 20.0121 10.1334 19.2831L10.1395 15.1813L10.1416 12.504C10.1415 12.2149 10.1231 11.4344 10.1501 11.1777C9.9027 11.1945 9.65491 11.2035 9.40706 11.2046Z" fill="#69C2F1"/>
<path d="M15.8052 13.2511C16.0468 13.221 16.3003 13.1994 16.4631 13.4298C16.6275 13.6499 16.6335 14.3483 16.5035 14.606C15.6499 16.2983 14.9257 18.1313 14.0509 19.7976C13.9645 19.9622 12.8639 20.0289 12.6725 19.7115C12.5677 19.3118 13.0146 18.493 13.2 18.1168C13.5186 17.3916 13.9811 16.5539 14.3363 15.8421C14.5219 15.4701 14.6767 15.0809 14.8577 14.729C14.4863 14.7634 12.2082 14.7841 12.0178 14.6943C11.8951 14.5007 11.8639 13.4701 11.9685 13.4037C12.2898 13.1996 13.2923 13.2892 13.6728 13.2928C14.3838 13.296 15.0948 13.2821 15.8052 13.2511Z" fill="#69C2F1"/>
<path d="M19.8743 13.2485C20.7203 13.1708 21.7633 13.3785 22.6321 13.2556C22.9505 13.2106 23.6059 13.2232 23.8897 13.3407C24.0688 13.4149 24.0396 14.49 23.9189 14.6558C23.1387 16.3389 22.362 18.0217 21.5768 19.7016C21.5444 19.7709 21.3978 19.8243 21.3309 19.8513C21.0637 19.9496 19.8958 20.0209 20.124 19.398C20.4204 18.6521 20.7746 17.8882 21.1252 17.1656C21.508 16.3764 22.0499 15.6023 22.3038 14.7416C21.903 14.7344 19.7827 14.7749 19.5272 14.6771C19.3338 14.4251 19.3695 13.6898 19.4678 13.3848C19.4998 13.2855 19.7786 13.2606 19.8743 13.2485Z" fill="#69C2F1"/>
<path d="M4.96809 13.2818C5.10644 13.2701 5.23643 13.2708 5.37474 13.2769C6.41363 13.3234 7.45113 13.2883 8.48944 13.2736C8.58953 13.2722 8.94343 13.3213 9.00087 13.3785C9.11951 13.4966 9.14071 13.9293 9.13333 14.1095C9.13119 14.2464 9.11967 14.4117 9.07025 14.5289C8.90861 14.9123 8.63419 15.4109 8.46743 15.7769C8.19948 16.3649 6.80575 19.5661 6.50952 19.872C6.24154 19.9299 5.38034 20.0125 5.223 19.7172C5.20174 19.1494 6.0641 17.5215 6.3293 16.9704C6.66181 16.2794 7.04354 15.3807 7.42505 14.7234C7.13965 14.7411 4.74969 14.7658 4.62225 14.7068C4.45818 14.4365 4.43472 13.6358 4.60024 13.3843C4.69354 13.3035 4.8448 13.2987 4.96809 13.2818Z" fill="#69C2F1"/>
<path d="M11.7197 11.2199C11.802 11.1817 11.8898 11.1593 11.9792 11.1537C12.5653 11.1216 13.5429 11.1841 14.172 11.1706C14.7549 11.1581 16.179 11.1256 16.7056 11.1907C15.0635 11.3145 13.3605 11.2356 11.7197 11.2199Z" fill="#69C2F1"/>
<path d="M19.6682 11.2242C20.0761 11.1758 24.1002 11.0988 24.2121 11.2065C24.2164 11.2106 24.2192 11.2162 24.2227 11.221C23.3691 11.2876 22.2036 11.2416 21.3296 11.2604C20.9753 11.2681 19.9925 11.2681 19.6682 11.2242Z" fill="#69C2F1"/>
<path d="M3.125 26.9103C3.13403 26.8747 3.14341 26.8393 3.15315 26.804C3.2327 26.5173 3.31331 26.4151 3.6097 26.4113C5.71221 26.3844 7.81711 26.4403 9.92006 26.3849C10.0561 26.3813 10.3272 26.4186 10.4513 26.4708C10.6984 26.713 10.6378 27.0026 10.5041 27.2924C10.265 27.3001 8.43737 27.3619 8.38326 27.3979C6.96067 27.4246 5.52749 27.3761 4.10318 27.4137C3.86228 27.4201 3.58877 27.4106 3.35224 27.3724C3.25872 27.2205 3.19755 27.0736 3.125 26.9103Z" fill="#69C2F1"/>
<path d="M8.38354 27.3975C8.43765 27.3615 10.2652 27.2997 10.5044 27.292C10.2373 27.5173 8.82427 27.3985 8.38354 27.3975Z" fill="#69C2F1"/>
<path d="M4.24146 24.6651C4.40947 24.5622 9.85029 24.668 10.5524 24.6281C12.223 24.5333 14.3528 24.6176 16.0609 24.5946C16.9579 24.6079 18.333 24.5377 19.1815 24.6444L19.2019 24.6635C19.0493 24.6889 17.8909 24.6734 17.6545 24.6732L14.0441 24.6711L7.40628 24.6715C6.46356 24.6704 5.15918 24.7142 4.24146 24.6651Z" fill="#69C2F1"/>
<path d="M2.27148 29.1131C3.92391 29.0724 5.67439 29.1124 7.33519 29.1105C8.24988 29.1094 9.65329 29.056 10.5322 29.111C10.2372 29.2228 2.50762 29.2015 2.27148 29.1131Z" fill="#69C2F1"/>
<path d="M20.0862 24.6738C20.0941 24.6682 20.1761 24.6093 20.1761 24.6093C22.1131 24.5679 24.0551 24.6061 25.9933 24.5942C26.1221 24.5934 26.5 24.6071 26.5898 24.6971L26.5991 24.7393C26.1523 24.6334 24.8571 24.6725 24.3348 24.6723L20.0862 24.6738Z" fill="#69C2F1"/>
<path d="M29.7639 7.79386C30.094 7.7388 30.4354 7.81321 30.7386 7.97552C31.9457 8.62178 32.1557 10.3597 31.125 11.2953C30.9127 11.488 30.7377 11.5417 30.4765 11.6308C30.459 13.4719 30.4548 15.3131 30.4642 17.1543C30.4658 17.9781 30.5276 19.1029 30.415 19.9086C30.3878 20.1041 30.2467 20.2247 30.0943 20.3208C29.8943 20.4124 29.628 20.5019 29.4261 20.3694C29.338 20.213 29.4054 18.7226 29.4037 18.4087C29.3785 16.1606 29.3918 13.9123 29.4429 11.6649C28.3125 11.2862 27.6725 9.7311 28.4371 8.6453C28.7494 8.20154 29.2452 7.86609 29.7639 7.79386Z" fill="#69C2F1"/>
<path d="M28.3561 16.7576C28.4762 16.7797 28.592 16.8029 28.6969 16.8734C28.8111 16.9504 28.9024 17.0732 28.9302 17.2167C29.0092 17.6237 29.0066 20.8471 28.8532 21.0825C28.7425 21.2528 28.5212 21.2724 28.3458 21.3039C28.2464 21.3054 28.2118 21.296 28.1179 21.275C28.0479 21.2084 28.0127 21.1748 28.0068 21.0661C27.9453 19.9264 28.0792 18.7685 27.96 17.6301C27.9249 17.2951 27.6709 17.2695 27.8158 16.9346C27.9578 16.7934 28.1691 16.7787 28.3561 16.7576Z" fill="#69C2F1"/>
<path d="M0.767334 29.8811C0.870437 29.8478 1.41064 29.9928 1.58656 29.9827C2.54344 29.9273 3.5081 29.9398 4.46683 29.9374L24.903 29.947C25.2279 29.9487 27.7157 29.9258 27.7471 29.9385C27.365 30.096 24.1826 30.0202 23.5358 30.0182L16.4025 30.014L6.33458 30.0144L2.92961 30.0219C2.51238 30.0237 1.02684 30.1312 0.767334 29.8811Z" fill="#69C2F1"/>
</g>
<defs>
<clipPath id="clip0_25_624">
<rect width="32" height="32" fill="white"/>
</clipPath>
</defs>
</svg>
