<svg width="26" height="24" viewBox="0 0 26 24" fill="none" xmlns="http://www.w3.org/2000/svg">
<path d="M4.66667 11.6667L7 7V5.83333H3.5V7H5.83333L3.5 11.6667M9.33333 11.6667L11.6667 7V5.83333H8.16667V7H10.5L8.16667 11.6667M14 11.6667L16.3333 7V5.83333H12.8333V7H15.1667L12.8333 11.6667M23.3333 0C22.05 0 21 1.05 21 2.33333C21 3.15 21.4667 3.96667 22.1667 4.31667V17.5H18.6667V15.1667C19.3667 15.1667 19.8333 14.7 19.8333 14V3.5C19.8333 2.8 19.3667 2.33333 18.6667 2.33333H14.2333C13.3 0.933333 11.6667 0 9.91667 0C8.16667 0 6.53333 0.933333 5.6 2.33333H1.16667C0.466667 2.33333 0 2.8 0 3.5V14C0 14.7 0.466667 15.1667 1.16667 15.1667V23.3333H18.6667V19.8333H22.1667C23.45 19.8333 24.5 18.7833 24.5 17.5V4.31667C25.2 3.96667 25.6667 3.15 25.6667 2.33333C25.6667 1.05 24.6167 0 23.3333 0ZM14 19.8333H5.83333V17.5H14V19.8333ZM17.5 12.8333H2.33333V4.66667H17.5V12.8333Z" fill="#69C2F1"/>
</svg>
