<svg width="33" height="32" viewBox="0 0 33 32" fill="none" xmlns="http://www.w3.org/2000/svg">
<path d="M16.5 0C7.4085 0 0 7.184 0 16C0 24.816 7.4085 32 16.5 32C25.5915 32 33 24.816 33 16C33 7.184 25.5915 0 16.5 0ZM16.5 8C19.3545 8 21.45 10.032 21.45 12.8C21.45 15.568 19.3545 17.6 16.5 17.6C13.6455 17.6 11.55 15.568 11.55 12.8C11.55 10.032 13.6455 8 16.5 8ZM16.5 28.8C13.1373 28.7996 9.9021 27.5516 7.458 25.312C8.7945 22.656 11.5995 20.8 14.85 20.8H18.15C21.4005 20.8 24.189 22.656 25.5255 25.312C23.0892 27.5534 19.8583 28.8021 16.5 28.8Z" fill="#69C2F1"/>
</svg>
